<svg viewBox="0 0 100 100" xmlns="http://www.w3.org/2000/svg"><path d="m32.29 93.52a19.6 19.6 0 0 0 15.38-35.06v-42.93a11.63 11.63 0 1 0 -23.25 0v42.93a19.45 19.45 0 0 0 -7.5 19.88 19.69 19.69 0 0 0 15.37 15.18zm-5.43-31.52 1.68-1.31v-45a7.33 7.33 0 0 1 7.31-7.29 7.49 7.49 0 0 1 7.5 7.32v45l1.65 1.28a15.2 15.2 0 0 1 6.23 12.4 15.47 15.47 0 0 1 -4.5 10.87 15.83 15.83 0 0 1 -10.88 4.5 15.16 15.16 0 0 1 -15-12.18c-.93-6.19 1.32-12.19 6.01-15.59z"/><path d="m36 85.27a10.86 10.86 0 0 0 11.1-11.06c0-7.5-6.37-9.94-8.06-11.44v-31.68h-6.18v31.68c-1.32 1.5-9.57 4.5-7.69 13.69a10.94 10.94 0 0 0 10.83 8.81z"/><path d="m72.6 17.59h-20.06v4.31h20.06a2.08 2.08 0 0 0 2.06-2.06 1.93 1.93 0 0 0 -2.06-2.25z"/><path d="m67.73 32a2.09 2.09 0 0 0 -2.06-2h-12.94v4.32h12.94a2.41 2.41 0 0 0 2.06-2.32z"/><path d="m74.85 44.21a2.08 2.08 0 0 0 -2.06-2.06h-20.06v4.31h20.06a2.25 2.25 0 0 0 2.06-2.25z"/></svg>