<svg viewBox="0 0 100 100" xmlns="http://www.w3.org/2000/svg"><g fill="#cc4b37"><path d="m48 58.46v-42.93a11.56 11.56 0 0 0 -11.62-11.63 11.68 11.68 0 0 0 -11.62 11.63v42.93a19.45 19.45 0 0 0 -7.5 19.88 19.61 19.61 0 1 0 30.74-19.88zm-.94 26.81a15.82 15.82 0 0 1 -10.87 4.5 15.17 15.17 0 0 1 -15-12.18c-.94-6.19 1.31-12.19 6-15.57l1.68-1.31v-45a7.33 7.33 0 0 1 7.33-7.31 7.49 7.49 0 0 1 7.5 7.32v45l1.68 1.28a15.2 15.2 0 0 1 6.19 12.4 15.47 15.47 0 0 1 -4.5 10.87z"/><path d="m39.38 62.77v-41.06h-6.18v41.06c-1.32 1.5-9.57 4.5-7.69 13.69a10.94 10.94 0 0 0 10.87 8.81 10.86 10.86 0 0 0 11.06-11.06c0-7.5-6.37-9.94-8.06-11.44z"/><path d="m60.6 18.19a2.26 2.26 0 0 0 2.25-2.26v-4.51a2.26 2.26 0 1 0 -4.51 0v4.51a2.26 2.26 0 0 0 2.26 2.26z"/><path d="m60.6 49.76a2.26 2.26 0 0 0 -2.26 2.24v4.51a2.26 2.26 0 0 0 4.51 0v-4.51a2.26 2.26 0 0 0 -2.25-2.24z"/><path d="m75 22.81 3.19-3.19a2.26 2.26 0 1 0 -3.19-3.19l-3.19 3.19a2.26 2.26 0 0 0 3.19 3.19z"/><path d="m75 45.13a2.26 2.26 0 0 0 -3.19 3.19l3.19 3.19a2.26 2.26 0 0 0 3.19-3.19z"/><path d="m83.15 31.72h-4.51a2.26 2.26 0 1 0 0 4.51h4.51a2.26 2.26 0 0 0 0-4.51z"/><path d="m60.6 22.7a11.16 11.16 0 0 0 -5.6 1.55 2.26 2.26 0 0 0 2.27 3.9 6.62 6.62 0 0 1 3.38-.94 6.77 6.77 0 0 1 0 13.53 6.63 6.63 0 0 1 -3.38-1 2.26 2.26 0 0 0 -2.27 3.96 11.16 11.16 0 0 0 5.65 1.55 11.28 11.28 0 0 0 0-22.55z"/></g></svg>