<svg viewBox="0 0 100 100" xmlns="http://www.w3.org/2000/svg"><g fill="#1779ba"><path d="m48 58.46v-42.93a11.56 11.56 0 0 0 -11.64-11.63 11.68 11.68 0 0 0 -11.62 11.63v42.93a19.45 19.45 0 0 0 -7.5 19.88 19.61 19.61 0 1 0 30.76-19.88zm-.94 26.81a15.82 15.82 0 0 1 -10.87 4.5 15.17 15.17 0 0 1 -15-12.18c-.94-6.19 1.31-12.19 6-15.57l1.69-1.31v-45a7.32 7.32 0 0 1 7.3-7.31 7.49 7.49 0 0 1 7.5 7.32v45l1.68 1.28a15.2 15.2 0 0 1 6.19 12.4 15.47 15.47 0 0 1 -4.5 10.87z"/><path d="m39.36 62.77v-12.93h-6.18v12.93c-1.31 1.5-9.56 4.5-7.69 13.69a10.94 10.94 0 0 0 10.87 8.81 10.88 10.88 0 0 0 11.07-11.06c0-7.5-6.38-9.94-8.07-11.44z"/><path d="m83.14 36.67-3.74-2.17-2.16 3.73-8.86-5.14 8.93-5.02 2.11 3.76 3.77-2.11-2.12-3.76 3.77-2.12-2.12-3.76-3.76 2.12-2.11-3.77-3.77 2.12 2.12 3.76-9.01 5.06v-10.33h4.31v-4.32h-4.31v-4.31h-4.32v4.31h-4.31v4.32h4.31v10.27l-8.63-5.01v4.99l6.44 3.74-6.44 3.61v4.95l8.63-4.85v10.34h-4.31v4.32h4.31v4.31h4.32v-4.31h4.31v-4.32h-4.31v-10.27l8.88 5.16-2.16 3.73 3.73 2.16 2.16-3.73 3.73 2.17 2.17-3.73-3.73-2.17z"/></g></svg>