<svg viewBox="0 0 100 100" xmlns="http://www.w3.org/2000/svg"><path d="m70 41.61a18.52 18.52 0 1 0 -18.5 18.52 18.52 18.52 0 0 0 18.5-18.52zm-22.75 9.39a4.25 4.25 0 1 1 5.18 4.14c-.31 0-.62.05-.93.05s-.62 0-.94-.05a4.26 4.26 0 0 1 -3.31-4.14zm4.25-22.25a4.25 4.25 0 1 1 -4.25 4.25 4.26 4.26 0 0 1 4.25-4.25zm1.68 13.25a5.52 5.52 0 1 1 5.52 5.52 5.52 5.52 0 0 1 -5.52-5.52zm-4.27 0a5.22 5.22 0 1 1 -5.21-5.22 5.22 5.22 0 0 1 5.21 5.22z"/><path d="m66.57 82.6c-16.67-.66-29-5.17-36.74-13.46a31.94 31.94 0 0 1 -8.43-22v-.2c0-11.36 3.11-19.95 9.25-25.53 9.29-8.41 22.62-7.26 22.75-7.25h.27a27.17 27.17 0 0 1 17.59 7.44c5.71 5.68 8.61 14.2 8.61 25.32 0 9.19-2.45 15.47-7.28 18.68-9.16 6.08-24.33-.19-24.48-.25l-1 2.3-1 2.3c.72.31 17.77 7.39 29.18-.17 6.33-4.19 9.53-11.88 9.53-22.86 0-12.54-3.41-22.28-10.15-28.92a31.88 31.88 0 0 0 -21-8.84c-1.65-.14-15.89-1-26.42 8.5-7.15 6.56-10.83 16.34-10.84 29.19a36.52 36.52 0 0 0 9.69 25.62c8.67 9.37 22.28 14.45 40.47 15.14v7l16.29-9.41-16.29-9.41z"/></svg>