<svg viewBox="0 0 100 100" xmlns="http://www.w3.org/2000/svg"><g fill="#043f8d"><path d="m66 44.31-14.47-19.77a1.9 1.9 0 0 0 -2.64-.42 1.86 1.86 0 0 0 -.42.42l-14.47 19.77a20.84 20.84 0 0 0 -2 21 19.51 19.51 0 0 0 16.45 11.35h3.1a19.51 19.51 0 0 0 16.52-11.36 20.84 20.84 0 0 0 -2.07-20.99zm-1.38 19.38a15.77 15.77 0 0 1 -13.26 9.31 22.73 22.73 0 0 1 -2.61 0 15.78 15.78 0 0 1 -13.26-9.28 16.92 16.92 0 0 1 1.65-17l12.86-17.86 13 17.63a16.87 16.87 0 0 1 1.62 17.2z"/><path d="m50 64.29h-.62a7.29 7.29 0 0 1 -6.2-4.35 7.9 7.9 0 0 1 .78-8 1.9 1.9 0 0 0 -3.07-2.24 11.73 11.73 0 0 0 -1.15 12 11.09 11.09 0 0 0 9.46 6.5h.88a1.9 1.9 0 0 0 0-3.79z"/><path d="m84.19 5h-9v5h9zm-18 0h-9v5h9zm-18 0h-9v5h9zm-18 0h-9v5h9zm-17.93.6h-1-.26-.05-.05-.07-.05-.09a10.86 10.86 0 0 0 -4.36 4.52v.09.06h-.33-.13l4.59 2a5.88 5.88 0 0 1 3.44-3.21zm-2.26 14.85h-5v9h5zm0 18h-5v9h5zm0 18h-5v9h5zm0 18h-5v9h5zm1.61 13.76-3.61 3.46a10.84 10.84 0 0 0 5.44 3.07h.13.17.12.18 2v-4.74h-.27a5.79 5.79 0 0 1 -4.2-1.79zm22.47 1.79h-9v5h9zm18 0h-9v5h9zm18 0h-9v5h9zm16.16-.37a5.68 5.68 0 0 1 -2 .37h-5.16v5h6a11 11 0 0 0 2.92-.69zm8.76-10.35h-5v4.91a5.83 5.83 0 0 1 -.41 2.15l4.65 1.84a10.78 10.78 0 0 0 .76-3.18v-.1-.06zm0-18h-5v9h5zm0-18h-5v9h5zm0-18h-5v9h5zm-3.19-17.14-3.53 3.55a5.76 5.76 0 0 1 1.72 4.12v.47h5v-.47h-.1v-.05c0-.22-.07-.44-.12-.65a10.82 10.82 0 0 0 -2.88-5.09z"/></g></svg>