<svg viewBox="0 0 100 100" xmlns="http://www.w3.org/2000/svg"><g fill="#228b22"><path d="m71.61 18.33h-43a3.43 3.43 0 0 0 0 6.85h5l-.21 53.44a16.62 16.62 0 0 0 33.24 0v-53.44h5a3.43 3.43 0 0 0 0-6.85zm-9.88 60.33a11.73 11.73 0 0 1 -23.46 0l.2-54h23.26z"/><circle cx="46.75" cy="38.93" r="3.92"/><path d="m52.58 45.71a2.29 2.29 0 1 0 2.29-2.29 2.29 2.29 0 0 0 -2.29 2.29z"/><circle cx="53.34" cy="29.97" r="2.5"/><circle cx="55.31" cy="11.62" r="3.48"/><path d="m44.24 11a2.86 2.86 0 1 0 -2.86-2.86 2.86 2.86 0 0 0 2.86 2.86z"/><path d="m50.1 86.28a7.34 7.34 0 0 0 7.34-7.28v-27h-14.67v27a7.33 7.33 0 0 0 7.33 7.28z"/></g></svg>