<svg id="Layer_1" data-name="Layer 1" xmlns="http://www.w3.org/2000/svg" viewBox="0 0 100 100"><title>adhesive_aggressive</title><polygon points="87 80.27 87 85.27 81.79 85.27 81.79 80.27 75.53 80.27 75.53 85.27 70.32 85.27 70.32 80.27 64.07 80.27 64.07 85.27 58.86 85.27 58.86 80.27 52.6 80.27 52.6 85.27 47.39 85.27 47.39 80.27 41.14 80.27 41.14 85.27 35.93 85.27 35.93 80.27 29.68 80.27 29.68 85.27 24.46 85.27 24.46 80.27 18.21 80.27 18.21 85.27 13 85.27 13 80.27 10 80.27 10 85.27 10 90.27 90 90.27 90 85.27 90 80.27 87 80.27"/><path d="M75.58,44.84l2.94,13.34c-3.45,1.22-10.18,3.15-22.15,5.12-12.93,2.13-27.17,2.57-36.83,2.57-1.71,0-3.24,0-4.54,0V53.53c2.53.18,5.83.33,9.76.33a162.33,162.33,0,0,0,21.43-1.45,122.31,122.31,0,0,0,29.39-7.57m3.56-7.11s-12.63,6.91-33.62,9.72a155.94,155.94,0,0,1-20.76,1.41A105.56,105.56,0,0,1,10,48V70.71s3.72.16,9.54.16c9.37,0,24.17-.42,37.64-2.64,21.83-3.59,27.1-7.11,27.1-7.11L79.14,37.73Z"/><polygon points="64 23.61 64 8.2 60 8.2 60 23.61 53.5 23.61 62 36.86 70.5 23.61 64 23.61"/><polygon points="40 8.2 36 8.2 36 23.61 29.5 23.61 38 36.86 46.5 23.61 40 23.61 40 8.2"/></svg>