<svg viewBox="0 0 100 100" xmlns="http://www.w3.org/2000/svg"><path d="m63 4.89a2.05 2.05 0 0 0 -1.78 2.11v8.18a2 2 0 0 0 4.09 0v-8.18a2 2 0 0 0 -2-2.09zm-23.47 8.18a2 2 0 0 0 -1.84 2.23 2 2 0 0 0 .63 1.28l6.13 6.14a2 2 0 1 0 2.93-2.85l-.05-.06-6.14-6.13a2 2 0 0 0 -1.66-.61zm46 0a2 2 0 0 0 -1.19.61l-6.13 6.13a2 2 0 1 0 2.82 3v-.05l6.14-6.14a2 2 0 0 0 -1.69-3.51zm-22.26 7.19a15.38 15.38 0 0 0 -15.27 14.47 20 20 0 0 0 -14.34-6.29c-8.51 0-15.92 4.56-18 11.63-6.07 1.3-10.66 6.07-10.66 11.93 0 6.7 5.71 12.27 13.29 12.27h.13a19.37 19.37 0 0 0 15.21 7.16c4.75 0 8.26-2.27 11.21-4.67a23.47 23.47 0 0 0 13.33 4.67 17.5 17.5 0 0 0 14.21-7.16h.1c7.58 0 14.31-5.32 14.31-12.27 0-5.32-3.7-9.77-9-11.4a14.84 14.84 0 0 0 .83-5 15.36 15.36 0 0 0 -15.35-15.34zm0 4.09a11.21 11.21 0 0 1 11.24 11.24 10.48 10.48 0 0 1 -.51 3.41c-3-4.15-7.43-7.45-13.8-7.45a20.22 20.22 0 0 0 -7.86 1.45 11.2 11.2 0 0 1 10.93-8.66zm-29.65 9.18a16.36 16.36 0 0 1 12.65 6.32 2 2 0 0 0 2.75.51c2.84-1.76 5.57-3.77 11.18-3.77 5.77 0 8 2.93 10.53 7.16a2 2 0 0 0 1.76 1c5.63 0 9.2 2.78 9.2 7.18 0 4.19-4.56 7.18-10.22 7.18h-1a2 2 0 0 0 -1.7.86c-2.58 3.78-5.09 6.3-10.59 6.3a21.3 21.3 0 0 1 -11.95-4.6 2.05 2.05 0 0 0 -2.69 0c-2.9 2.55-5.88 4.6-9.9 4.6a13.48 13.48 0 0 1 -11.64-6.27 2 2 0 0 0 -1.69-.86h-1c-5.66 0-9.2-2.74-9.2-7.18 0-4 3.45-6.65 8.4-7.21a2 2 0 0 0 1.79-1.63c1.06-5.49 5.84-9.58 13.35-9.58zm50.93-1a2 2 0 1 0 .18 4.09h8.19a2 2 0 0 0 .08-4.09zm-63.39 43.93a2 2 0 0 0 -1.76 1.4l-2 6.14a2.05 2.05 0 0 0 3.89 1.31l2.05-6.14a2 2 0 0 0 -1.25-2.61 1.92 1.92 0 0 0 -.93-.1zm18.4 0a2 2 0 0 0 -1.76 1.4l-2 6.14a2.06 2.06 0 0 0 3.9 1.31l2-6.14a2 2 0 0 0 -1.24-2.61 2 2 0 0 0 -.9-.1zm18.4 0a2 2 0 0 0 -1.75 1.4l-2.05 6.14a2.06 2.06 0 0 0 3.9 1.31l2-6.14a2.06 2.06 0 0 0 -1.25-2.61 2 2 0 0 0 -.81-.1zm-48 8.17a2 2 0 0 0 -1.8 1.37l-2 6.13a2.06 2.06 0 0 0 3.84 1.35l2-6.13a2 2 0 0 0 -1.24-2.61 2.11 2.11 0 0 0 -.9-.11zm18.41 0a2 2 0 0 0 -1.81 1.37l-2 6.13a2.06 2.06 0 0 0 3.9 1.31l2.05-6.13a2.06 2.06 0 0 0 -1.25-2.61 2.08 2.08 0 0 0 -.89-.11zm18.4 0a2 2 0 0 0 -1.77 1.37l-2 6.13a2.05 2.05 0 0 0 3.89 1.31l2-6.13a2 2 0 0 0 -1.25-2.61 2.06 2.06 0 0 0 -.89-.11zm18.4 0a2.07 2.07 0 0 0 -1.81 1.37l-2 6.13a2.06 2.06 0 0 0 3.9 1.31l2-6.13a2 2 0 0 0 -1.26-2.57 2.13 2.13 0 0 0 -.9-.11z"/></svg>