<?xml version="1.0" encoding="utf-8"?>
<svg height="100px" width="100px" fill="#000000" viewBox="0 0 60 68" x="0px" y="0px" xmlns="http://www.w3.org/2000/svg">
  <path fill-rule="evenodd" d="M449.828427,447 L449.828427,447 L450.707107,447.87868 C451.097631,448.269204 451.097631,448.902369 450.707107,449.292893 L449.292893,450.707107 C448.902369,451.097631 448.269204,451.097631 447.87868,450.707107 L436.292893,439.12132 C435.902369,438.730796 435.902369,438.097631 436.292893,437.707107 L437.707107,436.292893 C438.097631,435.902369 438.730796,435.902369 439.12132,436.292893 L440,437.171573 L459.044504,418.127069 C461.754995,415.416578 466.12946,415.38992 468.872534,418.045436 C468.927798,418.099482 468.941534,418.113107 468.955228,418.126801 L468.873199,418.044772 C471.607489,420.868109 471.58148,425.246947 468.872931,427.955496 L449.828427,447 Z M441,470 C437.134007,470 434,466.865993 434,463 C434,461.644105 434.625489,460.071158 435.72806,458.149202 C436.057737,457.574521 436.426572,456.978726 436.827888,456.367177 C437.398865,455.49709 438.007489,454.63686 438.615985,453.82162 C438.829024,453.536199 439.027224,453.276271 439.205781,453.046438 C439.314698,452.906245 439.394174,452.805618 439.439378,452.749216 C440.240006,451.750261 441.759994,451.750261 442.560622,452.749216 C442.605826,452.805618 442.685302,452.906245 442.794219,453.046438 C442.972776,453.276271 443.170976,453.536199 443.384015,453.82162 C443.992511,454.63686 444.601135,455.49709 445.172112,456.367177 C445.573428,456.978726 445.942263,457.574521 446.27194,458.149202 C447.374511,460.071158 448,461.644105 448,463 C448,466.865993 444.865993,470 441,470 Z M433.062527,472 C433.549934,472 434.020566,472.177988 434.385994,472.500522 C436.200998,474.102478 438.528181,475 441,475 C443.471819,475 445.799002,474.102478 447.614006,472.500522 C447.979434,472.177988 448.450066,472 448.937473,472 L478,472 C479.104569,472 480,472.895431 480,474 L480,482 C480,483.104569 479.104569,484 478,484 L422,484 C420.895431,484 420,483.104569 420,482 L420,474 C420,472.895431 420.895431,472 422,472 L433.062527,472 Z" transform="translate(-420 -416)" style="fill: rgb(185, 196, 211);"/>
</svg>