<?xml version="1.0" encoding="utf-8"?>
<svg viewBox="4.915 8.419 11.823 10.123" xmlns="http://www.w3.org/2000/svg">
  <defs>
    <clipPath id="clipPath18" clipPathUnits="userSpaceOnUse">
      <path id="path16" d="M 0,19.25 H 22.75 V 0 H 0 Z"/>
    </clipPath>
  </defs>
  <g transform="matrix(1.333333, 0, 0, -1.333333, 0, 25.666668)" id="g10">
    <g id="g12">
      <g clip-path="url(#clipPath18)" id="g14">
        <g transform="translate(11.834,9.0098)" id="g20">
          <path id="path22" style="fill:#231f20;fill-opacity:1;fill-rule:nonzero;stroke:none" d="m 0,0 c 0.099,-0.002 0.167,0.021 0.167,0.131 0,0.118 -0.126,0.109 -0.21,0.109 h -0.2 V 0 Z M 0.311,-0.502 H 0.099 l -0.196,0.371 h -0.146 v -0.371 h -0.184 v 0.877 h 0.425 c 0.229,0 0.34,-0.062 0.34,-0.268 0,-0.163 -0.085,-0.227 -0.239,-0.238 z m 0.195,0.442 c 0,0.363 -0.251,0.62 -0.599,0.62 -0.354,0 -0.598,-0.257 -0.598,-0.62 0,-0.362 0.244,-0.62 0.598,-0.62 0.348,0 0.599,0.258 0.599,0.62 m -1.411,0 c 0,0.449 0.36,0.812 0.812,0.812 0.449,0 0.813,-0.363 0.813,-0.812 0,-0.448 -0.364,-0.813 -0.813,-0.813 -0.452,0 -0.812,0.365 -0.812,0.813"/>
        </g>
        <g transform="translate(9.6616,7.1646)" id="g24">
          <path id="path26" style="fill:#231f20;fill-opacity:1;fill-rule:nonzero;stroke:none" d="m 0,0 c -0.539,-0.594 -1.314,-0.97 -2.179,-0.97 -1.626,0 -2.945,1.319 -2.945,2.945 0,1.627 1.319,2.945 2.945,2.945 0.926,0 1.75,-0.428 2.29,-1.096 l 0.678,0.515 c -0.696,0.872 -1.766,1.432 -2.968,1.432 -2.096,0 -3.796,-1.699 -3.796,-3.796 0,-2.097 1.7,-3.796 3.796,-3.796 1.1,0 2.088,0.471 2.781,1.218 z"/>
        </g>
        <g transform="translate(7.168,11.5991)" id="g28">
          <path id="path30" style="fill:#231f20;fill-opacity:1;fill-rule:nonzero;stroke:none" d="m 0,0 v -1.505 h -0.738 l -0.117,0.235 -0.235,-0.151 1.056,-1.207 -0.002,-2.287 c 0,0 -1.188,-0.026 -2.06,1.666 l 0.553,0.286 c 0,0 0.604,-0.822 0.838,-0.889 0,0 0.101,0.436 -0.067,0.922 l -0.386,0.419 c 0,0 -0.702,0.503 -0.72,0.822 0,0 -0.066,1.182 1.878,1.689"/>
        </g>
        <g transform="translate(7.8369,11.5991)" id="g32">
          <path id="path34" style="fill:#231f20;fill-opacity:1;fill-rule:nonzero;stroke:none" d="m 0,0 v -4.917 l 0.783,0.24 -0.011,1.864 h 0.621 c 0,0 0.167,-0.184 -0.285,-0.838 L 1.61,-4.02 c 0,0 0.827,0.728 0.425,2.304 0,0 -0.208,1.259 -2.035,1.716"/>
        </g>
        <g transform="translate(8.6758,10.1782)" id="g36">
          <path id="path38" style="fill:#ffffff;fill-opacity:1;fill-rule:nonzero;stroke:none" d="m 0,0 v -0.604 h 0.436 c 0,0 -0.134,0.52 -0.436,0.604"/>
        </g>
      </g>
    </g>
  </g>
</svg>