<?xml version="1.0" encoding="utf-8"?>
<svg viewBox="31.2 28.816 25 25" width="25" height="25" xmlns="http://www.w3.org/2000/svg">
  <g transform="matrix(1, 0, 0, 1, 1.463377, 1.549441)">
    <circle cx="42.2" cy="39.816" r="11" fill="#1779ba" stroke-width="2" stroke="#fff"/>
    <path d="M 43.266 41.83 L 43.266 42.676 L 41.135 42.676 L 41.135 41.525 C 41.135 41.021 41.195 40.646 41.314 40.4 C 41.434 40.155 41.695 39.831 42.097 39.429 L 43.473 38.052 C 43.767 37.735 43.914 37.342 43.914 36.874 C 43.925 36.441 43.76 36.022 43.455 35.714 C 43.156 35.408 42.765 35.255 42.286 35.255 C 41.806 35.255 41.407 35.401 41.09 35.696 C 40.766 35.99 40.579 36.382 40.532 36.874 L 38.247 36.874 C 38.373 35.752 38.811 34.874 39.56 34.238 C 40.31 33.602 41.242 33.285 42.358 33.285 C 43.48 33.285 44.394 33.591 45.101 34.202 C 45.803 34.814 46.154 35.669 46.154 36.766 C 46.154 37.522 45.947 38.151 45.533 38.655 C 45.293 38.955 45.11 39.168 44.985 39.294 C 44.821 39.457 44.656 39.619 44.49 39.779 C 44.28 39.971 44.103 40.139 43.959 40.283 L 43.608 40.652 C 43.381 40.934 43.266 41.327 43.266 41.83 Z M 43.113 46.004 C 43.113 46.004 42.772 46.336 42.209 46.346 C 41.71 46.355 41.323 46.004 41.323 46.004 C 40.957 45.728 40.775 45.381 40.775 44.961 C 40.775 44.547 40.916 44.202 41.197 43.926 C 41.468 43.652 41.838 43.5 42.223 43.504 C 42.619 43.504 42.961 43.641 43.248 43.917 C 43.536 44.187 43.68 44.529 43.68 44.943 C 43.68 45.357 43.491 45.71 43.113 46.004 Z" fill="#fff" white-space="pre"/>
  </g>
</svg>