<?xml version="1.0" encoding="utf-8"?>
<svg viewBox="9 23 63 50.578" xmlns="http://www.w3.org/2000/svg">
  <defs>
    <style>.cls-1{fill:#fff;}.cls-2{fill:#ccc;}</style>
  </defs>
  <g id="Layer_2" data-name="Layer 2">
    <rect class="cls-1" x="9.5" y="23.5" width="62" height="32"/>
    <path d="M71,24V55H10V24H71m1-1H9V56H72V23Z"/>
    <rect class="cls-2" x="13" y="30" width="26" height="19"/>
    <path d="M31,30H27v1h4V30Zm-8,0H19v1h4V30Zm-8,0H13v1h0v1h1V31h1V30Zm-1,6H13v4h1V36Zm0,8H13v4h1V44Zm6,4H16v1h4V48Zm8,0H24v1h4V48Zm8,0H32v1h4V48Zm3-4H38v4h1V44Zm0-8H38v4h1V36Zm0-6H35v1h3v1h1V30Z"/>
    <rect class="cls-2" x="42" y="30" width="26" height="19"/>
    <path d="M60,30H56v1h4V30Zm-8,0H48v1h4V30Zm-8,0H42v1h0v1h1V31h1V30Zm-1,6H42v4h1V36Zm0,8H42v4h1V44Zm6,4H45v1h4V48Zm8,0H53v1h4V48Zm8,0H61v1h4V48Zm3-4H67v4h1V44Zm0-8H67v4h1V36Zm0-6H64v1h3v1h1V30Z"/>
  </g>
  <path d="M 29.263 63.071 L 29.263 69.811 L 32.813 69.811 L 32.813 70.891 L 27.903 70.891 L 27.903 63.071 L 29.263 63.071 ZM 38.533 70.891 L 37.203 70.891 C 37.15 70.778 37.1 70.598 37.053 70.351 C 36.64 70.784 36.133 71.001 35.533 71.001 C 34.947 71.001 34.47 70.834 34.103 70.501 C 33.73 70.168 33.543 69.754 33.543 69.261 C 33.543 68.641 33.773 68.168 34.233 67.841 C 34.693 67.508 35.353 67.341 36.213 67.341 L 37.013 67.341 L 37.013 66.961 C 37.013 66.661 36.93 66.421 36.763 66.241 C 36.59 66.054 36.333 65.961 35.993 65.961 C 35.693 65.961 35.45 66.038 35.263 66.191 C 35.07 66.338 34.973 66.524 34.973 66.751 L 33.673 66.751 C 33.673 66.438 33.777 66.141 33.983 65.861 C 34.197 65.581 34.487 65.364 34.853 65.211 C 35.213 65.051 35.617 64.971 36.063 64.971 C 36.743 64.971 37.287 65.141 37.693 65.481 C 38.1 65.828 38.307 66.311 38.313 66.931 L 38.313 69.551 C 38.313 70.071 38.387 70.488 38.533 70.801 L 38.533 70.891 Z M 35.773 69.951 C 36.027 69.951 36.267 69.888 36.493 69.761 C 36.727 69.634 36.9 69.468 37.013 69.261 L 37.013 68.161 L 36.303 68.161 C 35.823 68.161 35.46 68.244 35.213 68.411 C 34.973 68.584 34.853 68.824 34.853 69.131 C 34.853 69.378 34.937 69.578 35.103 69.731 C 35.27 69.878 35.493 69.951 35.773 69.951 ZM 44.784 67.971 L 44.784 68.041 C 44.784 68.948 44.58 69.668 44.174 70.201 C 43.774 70.734 43.22 71.001 42.514 71.001 C 41.834 71.001 41.304 70.754 40.924 70.261 L 40.864 70.891 L 39.684 70.891 L 39.684 62.641 L 40.984 62.641 L 40.984 65.641 C 41.364 65.194 41.87 64.971 42.504 64.971 C 43.21 64.971 43.767 65.234 44.174 65.761 C 44.58 66.288 44.784 67.024 44.784 67.971 Z M 43.474 68.101 L 43.474 67.931 C 43.474 67.304 43.364 66.831 43.144 66.511 C 42.924 66.198 42.6 66.041 42.174 66.041 C 41.607 66.041 41.21 66.288 40.984 66.781 L 40.984 69.181 C 41.217 69.681 41.617 69.931 42.184 69.931 C 42.597 69.931 42.914 69.781 43.134 69.481 C 43.354 69.174 43.467 68.714 43.474 68.101 ZM 48.436 71.001 C 47.609 71.001 46.939 70.741 46.426 70.221 C 45.912 69.694 45.656 68.998 45.656 68.131 L 45.656 67.971 C 45.656 67.391 45.766 66.874 45.986 66.421 C 46.212 65.961 46.526 65.604 46.926 65.351 C 47.332 65.098 47.786 64.971 48.286 64.971 C 49.072 64.971 49.682 65.224 50.116 65.731 C 50.549 66.238 50.766 66.951 50.766 67.871 L 50.766 68.401 L 46.966 68.401 C 47.006 68.881 47.166 69.261 47.446 69.541 C 47.726 69.821 48.079 69.961 48.506 69.961 C 49.106 69.961 49.592 69.718 49.966 69.231 L 50.676 69.901 C 50.442 70.248 50.132 70.518 49.746 70.711 C 49.352 70.904 48.916 71.001 48.436 71.001 Z M 48.276 66.021 C 47.922 66.021 47.632 66.144 47.406 66.391 C 47.186 66.644 47.046 66.994 46.986 67.441 L 49.476 67.441 L 49.476 67.351 C 49.449 66.911 49.332 66.578 49.126 66.351 C 48.919 66.131 48.636 66.021 48.276 66.021 ZM 53.167 62.641 L 53.167 70.891 L 51.857 70.891 L 51.857 62.641 L 53.167 62.641 Z" transform="matrix(1, 0, 0, 1, 0, 0)" style="fill: rgb(51, 51, 51); white-space: pre;"/>
</svg>