<?xml version="1.0" encoding="utf-8"?>
<svg viewBox="9 23 63 33" xmlns="http://www.w3.org/2000/svg">
  <defs>
    <style>.cls-1{fill:#fff;}.cls-2{fill:#ccc;}</style>
  </defs>
  <g id="Layer_2" data-name="Layer 2">
    <rect class="cls-1" x="9.5" y="23.5" width="62" height="32"/>
    <path d="M71,24V55H10V24H71m1-1H9V56H72V23Z"/>
    <rect class="cls-2" x="13" y="30" width="26" height="19"/>
    <path d="M31,30H27v1h4V30Zm-8,0H19v1h4V30Zm-8,0H13v1h0v1h1V31h1V30Zm-1,6H13v4h1V36Zm0,8H13v4h1V44Zm6,4H16v1h4V48Zm8,0H24v1h4V48Zm8,0H32v1h4V48Zm3-4H38v4h1V44Zm0-8H38v4h1V36Zm0-6H35v1h3v1h1V30Z"/>
    <rect class="cls-2" x="42" y="30" width="26" height="19"/>
    <path d="M60,30H56v1h4V30Zm-8,0H48v1h4V30Zm-8,0H42v1h0v1h1V31h1V30Zm-1,6H42v4h1V36Zm0,8H42v4h1V44Zm6,4H45v1h4V48Zm8,0H53v1h4V48Zm8,0H61v1h4V48Zm3-4H67v4h1V44Zm0-8H67v4h1V36Zm0-6H64v1h3v1h1V30Z"/>
  </g>
</svg>