<?xml version="1.0" encoding="utf-8"?>
<svg viewBox="0 0 18 18" xmlns="http://www.w3.org/2000/svg">
  <path d="M 11.545 7.983 C 11.545 7.001 11.196 6.162 10.5 5.465 C 9.802 4.768 8.963 4.419 7.982 4.419 C 7.001 4.419 6.162 4.768 5.465 5.465 C 4.768 6.162 4.42 7.001 4.42 7.982 C 4.42 8.963 4.768 9.801 5.465 10.499 C 6.162 11.196 7.001 11.545 7.982 11.545 C 8.963 11.545 9.802 11.196 10.499 10.5 C 11.196 9.802 11.545 8.963 11.545 7.982 Z M 15.617 14.6 C 15.617 14.875 15.516 15.113 15.315 15.315 C 15.128 15.51 14.869 15.62 14.599 15.617 C 14.313 15.617 14.074 15.516 13.883 15.315 L 11.156 12.595 C 10.226 13.246 9.117 13.591 7.982 13.581 C 7.234 13.583 6.494 13.433 5.807 13.14 C 5.139 12.861 4.531 12.456 4.018 11.946 C 3.508 11.433 3.103 10.825 2.825 10.158 C 2.531 9.47 2.381 8.73 2.383 7.982 C 2.383 7.224 2.53 6.499 2.825 5.806 C 3.103 5.139 3.508 4.531 4.018 4.017 C 4.531 3.508 5.139 3.103 5.807 2.825 C 6.494 2.531 7.235 2.381 7.983 2.383 C 8.741 2.383 9.466 2.53 10.158 2.825 C 10.826 3.103 11.434 3.508 11.948 4.017 C 12.457 4.531 12.862 5.139 13.141 5.806 C 13.435 6.499 13.581 7.224 13.581 7.982 C 13.581 9.148 13.253 10.207 12.596 11.155 L 15.323 13.883 C 15.519 14.079 15.618 14.318 15.618 14.599 Z" fill="#333" style=""/>
</svg>