<?xml version="1.0" encoding="utf-8"?>
<svg viewBox="0 0 18 18" xmlns="http://www.w3.org/2000/svg">
  <path d="M 11.088 8.166 C 11.088 7.36 10.802 6.672 10.231 6.1 C 9.658 5.528 8.97 5.242 8.165 5.242 C 7.36 5.242 6.672 5.528 6.1 6.1 C 5.528 6.672 5.243 7.36 5.243 8.165 C 5.243 8.97 5.528 9.657 6.1 10.23 C 6.672 10.802 7.36 11.088 8.165 11.088 C 8.97 11.088 9.658 10.802 10.23 10.231 C 10.802 9.658 11.088 8.97 11.088 8.165 Z M 14.429 13.594 C 14.429 13.82 14.346 14.015 14.181 14.181 C 14.028 14.341 13.815 14.431 13.594 14.429 C 13.359 14.429 13.163 14.346 13.006 14.181 L 10.769 11.949 C 10.006 12.484 9.096 12.767 8.165 12.758 C 7.551 12.76 6.944 12.637 6.38 12.397 C 5.832 12.168 5.334 11.835 4.913 11.417 C 4.494 10.996 4.162 10.497 3.934 9.95 C 3.693 9.386 3.57 8.778 3.571 8.165 C 3.571 7.543 3.692 6.948 3.934 6.38 C 4.162 5.832 4.494 5.334 4.913 4.912 C 5.334 4.494 5.832 4.162 6.38 3.934 C 6.944 3.693 7.552 3.57 8.166 3.571 C 8.788 3.571 9.382 3.692 9.95 3.934 C 10.498 4.162 10.997 4.494 11.419 4.912 C 11.836 5.334 12.169 5.832 12.397 6.38 C 12.639 6.948 12.758 7.543 12.758 8.165 C 12.758 9.121 12.489 9.99 11.95 10.768 L 14.188 13.006 C 14.348 13.167 14.43 13.363 14.43 13.594 Z" style="fill: rgb(255, 255, 255);"/>
</svg>