<?xml version="1.0" encoding="utf-8"?>
<svg viewBox="0 0 16 13" xmlns="http://www.w3.org/2000/svg">
  <defs>
    <clipPath id="clipPath18" clipPathUnits="userSpaceOnUse">
      <path id="path16" d="M 0,26.5 H 26.5 V 0 H 0 Z"/>
    </clipPath>
  </defs>
  <g id="g10" transform="matrix(1.457806, 0, 0, -1.457806, -10.618369, 26.893661)" style="">
    <g id="g12">
      <g clip-path="url(#clipPath18)" id="g14">
        <g transform="translate(8.2368,14.5991)" id="g20">
          <path id="path22" style="fill:#231f20;fill-opacity:1;fill-rule:nonzero;stroke:none" d="m 0,0 h 0.18 c 0.333,0 0.405,0.204 0.405,0.47 v 1.318 c 0,0.276 -0.144,0.358 -0.36,0.358 H 0 Z m -0.953,-4.262 v 7.276 h 1.259 c 0.764,0 1.232,-0.306 1.232,-1.246 V 0.735 c 0,-0.541 -0.135,-0.991 -0.944,-1.093 v -0.021 c 0.423,-0.061 0.872,-0.225 0.908,-0.889 0.055,-0.97 0,-1.992 0.153,-2.994 H 0.702 c -0.162,0.838 -0.117,1.932 -0.117,2.78 0,0.44 -0.144,0.613 -0.585,0.593 v -3.373 z"/>
        </g>
        <g transform="translate(11.4814,15.2529)" id="g24">
          <path id="path26" style="fill:#231f20;fill-opacity:1;fill-rule:nonzero;stroke:none" d="M 0,0 C 0,0.266 -0.081,0.286 -0.207,0.286 -0.332,0.286 -0.413,0.266 -0.413,0 v -3.985 c 0,-0.266 0.081,-0.286 0.206,-0.286 0.126,0 0.207,0.02 0.207,0.286 z m 0.863,-4.006 c 0,-0.602 -0.413,-0.981 -1.07,-0.981 -0.656,0 -1.069,0.379 -1.069,0.981 V 0.02 c 0,0.604 0.413,0.981 1.069,0.981 0.657,0 1.07,-0.377 1.07,-0.981 z"/>
        </g>
        <g transform="translate(12.8018,10.3374)" id="g28">
          <path id="path30" style="fill:#231f20;fill-opacity:1;fill-rule:nonzero;stroke:none" d="m 0,0 v 7.276 h 0.954 v -2.79 h 0.53 v 2.79 H 2.438 V 0 H 1.484 V 3.536 H 0.954 L 0.954,0 Z"/>
        </g>
        <g transform="translate(16.7212,11.5132)" id="g32">
          <path id="path34" style="fill:#231f20;fill-opacity:1;fill-rule:nonzero;stroke:none" d="m 0,0 c 0,-0.368 0.099,-0.45 0.297,-0.45 0.188,0 0.287,0.082 0.287,0.45 v 0.766 c 0,1.022 -1.537,2.024 -1.537,3.209 v 1.042 c 0,0.95 0.657,1.226 1.241,1.226 0.593,0 1.25,-0.276 1.25,-1.226 V 3.485 H 0.584 V 4.924 C 0.584,5.292 0.485,5.375 0.297,5.375 0.099,5.375 0,5.292 0,4.924 V 4.025 C 0,3.504 1.538,1.931 1.538,1.196 v -1.288 c 0,-0.95 -0.657,-1.227 -1.25,-1.227 -0.584,0 -1.241,0.277 -1.241,1.227 v 1.676 l 0.953,0 z"/>
        </g>
      </g>
    </g>
  </g>
</svg>