<?xml version="1.0" encoding="utf-8"?>
<svg viewBox="8 30 63 36.438" xmlns="http://www.w3.org/2000/svg">
  <defs>
    <style>.cls-1{fill:#fff;}.cls-2{fill:#ccc;}</style>
  </defs>
  <g>
    <g id="Layer_2" data-name="Layer 2">
      <rect class="cls-1" x="8.5" y="30.5" width="62" height="18"/>
      <path d="M70,31V48H9V31H70m1-1H8V49H71V30Z"/>
      <rect class="cls-2" x="8" y="30" width="21" height="19"/>
      <path d="M29,30H25v1h4V30Zm-8,0H17v1h4V30Zm-8,0H9v1h4V30ZM9,33H8v4H9V33Zm0,8H8v4H9V41Zm3,7H8v1h4V48Zm8,0H16v1h4V48Zm8,0H24v1h4V48Zm1-6H28v4h1V42Zm0-8H28v4h1V34Z"/>
    </g>
    <path d="M 22.224 61.749 C 22.224 61.402 22.104 61.136 21.864 60.949 C 21.624 60.762 21.187 60.576 20.554 60.389 C 19.927 60.196 19.427 59.982 19.054 59.749 C 18.341 59.302 17.984 58.719 17.984 57.999 C 17.984 57.372 18.241 56.852 18.754 56.439 C 19.267 56.032 19.934 55.829 20.754 55.829 C 21.301 55.829 21.787 55.929 22.214 56.129 C 22.641 56.329 22.974 56.616 23.214 56.989 C 23.461 57.362 23.584 57.772 23.584 58.219 L 22.224 58.219 C 22.224 57.812 22.097 57.492 21.844 57.259 C 21.584 57.032 21.217 56.919 20.744 56.919 C 20.297 56.919 19.954 57.012 19.714 57.199 C 19.467 57.392 19.344 57.659 19.344 57.999 C 19.344 58.286 19.477 58.522 19.744 58.709 C 20.004 58.902 20.441 59.089 21.054 59.269 C 21.661 59.449 22.147 59.656 22.514 59.889 C 22.887 60.122 23.157 60.389 23.324 60.689 C 23.497 60.982 23.584 61.332 23.584 61.739 C 23.584 62.386 23.334 62.902 22.834 63.289 C 22.334 63.676 21.657 63.869 20.804 63.869 C 20.237 63.869 19.717 63.762 19.244 63.549 C 18.771 63.342 18.401 63.056 18.134 62.689 C 17.874 62.316 17.744 61.886 17.744 61.399 L 19.104 61.399 C 19.104 61.839 19.251 62.182 19.544 62.429 C 19.837 62.669 20.257 62.789 20.804 62.789 C 21.277 62.789 21.634 62.696 21.874 62.509 C 22.107 62.316 22.224 62.062 22.224 61.749 ZM 27.21 63.869 C 26.383 63.869 25.713 63.609 25.2 63.089 C 24.686 62.562 24.43 61.866 24.43 60.999 L 24.43 60.839 C 24.43 60.259 24.54 59.742 24.76 59.289 C 24.986 58.829 25.3 58.472 25.7 58.219 C 26.106 57.966 26.56 57.839 27.06 57.839 C 27.846 57.839 28.456 58.092 28.89 58.599 C 29.323 59.106 29.54 59.819 29.54 60.739 L 29.54 61.269 L 25.74 61.269 C 25.78 61.749 25.94 62.129 26.22 62.409 C 26.5 62.689 26.853 62.829 27.28 62.829 C 27.88 62.829 28.366 62.586 28.74 62.099 L 29.45 62.769 C 29.216 63.116 28.906 63.386 28.52 63.579 C 28.126 63.772 27.69 63.869 27.21 63.869 Z M 27.05 58.889 C 26.696 58.889 26.406 59.012 26.18 59.259 C 25.96 59.512 25.82 59.862 25.76 60.309 L 28.25 60.309 L 28.25 60.219 C 28.223 59.779 28.106 59.446 27.9 59.219 C 27.693 58.999 27.41 58.889 27.05 58.889 ZM 31.94 55.509 L 31.94 63.759 L 30.63 63.759 L 30.63 55.509 L 31.94 55.509 ZM 35.118 63.759 L 33.818 63.759 L 33.818 58.919 L 32.928 58.919 L 32.928 57.949 L 33.818 57.949 L 33.818 57.419 C 33.818 56.772 33.998 56.272 34.358 55.919 C 34.711 55.572 35.211 55.399 35.858 55.399 C 36.084 55.399 36.328 55.429 36.588 55.489 L 36.558 56.509 C 36.411 56.482 36.244 56.469 36.058 56.469 C 35.431 56.469 35.118 56.789 35.118 57.429 L 35.118 57.949 L 36.298 57.949 L 36.298 58.919 L 35.118 58.919 L 35.118 63.759 ZM 39.785 59.909 L 39.785 60.959 L 36.965 60.959 L 36.965 59.909 L 39.785 59.909 ZM 42.343 55.939 L 42.343 62.679 L 45.893 62.679 L 45.893 63.759 L 40.983 63.759 L 40.983 55.939 L 42.343 55.939 ZM 51.612 63.759 L 50.282 63.759 C 50.228 63.646 50.178 63.466 50.132 63.219 C 49.718 63.652 49.212 63.869 48.612 63.869 C 48.025 63.869 47.548 63.702 47.182 63.369 C 46.808 63.036 46.622 62.622 46.622 62.129 C 46.622 61.509 46.852 61.036 47.312 60.709 C 47.772 60.376 48.432 60.209 49.292 60.209 L 50.092 60.209 L 50.092 59.829 C 50.092 59.529 50.008 59.289 49.842 59.109 C 49.668 58.922 49.412 58.829 49.072 58.829 C 48.772 58.829 48.528 58.906 48.342 59.059 C 48.148 59.206 48.052 59.392 48.052 59.619 L 46.752 59.619 C 46.752 59.306 46.855 59.009 47.062 58.729 C 47.275 58.449 47.565 58.232 47.932 58.079 C 48.292 57.919 48.695 57.839 49.142 57.839 C 49.822 57.839 50.365 58.009 50.772 58.349 C 51.178 58.696 51.385 59.179 51.392 59.799 L 51.392 62.419 C 51.392 62.939 51.465 63.356 51.612 63.669 L 51.612 63.759 Z M 48.852 62.819 C 49.105 62.819 49.345 62.756 49.572 62.629 C 49.805 62.502 49.978 62.336 50.092 62.129 L 50.092 61.029 L 49.382 61.029 C 48.902 61.029 48.538 61.112 48.292 61.279 C 48.052 61.452 47.932 61.692 47.932 61.999 C 47.932 62.246 48.015 62.446 48.182 62.599 C 48.348 62.746 48.572 62.819 48.852 62.819 ZM 52.76 57.949 L 53.99 57.949 L 54.02 58.559 C 54.434 58.079 54.994 57.839 55.7 57.839 C 56.474 57.839 57.004 58.136 57.29 58.729 C 57.717 58.136 58.314 57.839 59.08 57.839 C 59.72 57.839 60.197 58.016 60.51 58.369 C 60.824 58.722 60.984 59.246 60.99 59.939 L 60.99 63.759 L 59.68 63.759 L 59.68 59.979 C 59.68 59.612 59.6 59.342 59.44 59.169 C 59.28 58.996 59.014 58.909 58.64 58.909 C 58.347 58.909 58.104 58.989 57.91 59.149 C 57.724 59.309 57.594 59.516 57.52 59.769 L 57.53 63.759 L 56.22 63.759 L 56.22 59.939 C 56.2 59.252 55.85 58.909 55.17 58.909 C 54.65 58.909 54.28 59.122 54.06 59.549 L 54.06 63.759 L 52.76 63.759 L 52.76 57.949 Z" transform="matrix(1, 0, 0, 1, 0, 0)" style="fill: rgb(51, 51, 51); white-space: pre;"/>
  </g>
</svg>