<?xml version="1.0" encoding="utf-8"?>
<svg viewBox="8 30 63 19" xmlns="http://www.w3.org/2000/svg">
  <defs>
    <style>.cls-1{fill:#fff;}.cls-2{fill:#ccc;}</style>
  </defs>
  <rect class="cls-1" x="29" y="30" width="41.5" height="18" style="fill: rgb(204, 204, 204);"/>
  <path d="M 69.963 31.047 L 69.944 48 L 28.68 48 L 28.68 31 L 69.497 31.054 M 71 30 L 28 30 L 28 49 L 71 49 L 71 30 Z"/>
  <rect class="cls-2" x="8" y="30" width="21" height="19" style="fill: rgb(255, 255, 255);"/>
  <path d="M 29 30 L 25 30 L 25 31 L 29 31 L 29 30 Z" style=""/>
  <path d="M 29 34 L 28 34 L 28 38 L 29 38 L 29 34 Z" style=""/>
  <path d="M 29 41 L 28 41 L 28 45 L 29 45 L 29 41 Z" style=""/>
  <path d="M 29 48 L 25 48 L 25 49 L 29 49 L 29 48 Z" style=""/>
  <path d="M 20.957 48 L 16 48 L 16 49 L 20.957 49 L 20.957 48 Z" style=""/>
  <path d="M 12 48 L 8 48 L 8 49 L 12 49 L 12 48 Z" style=""/>
  <path d="M 9 41 L 8 41 L 8 45 L 9 45 L 9 41 Z" style=""/>
  <path d="M 9 34 L 8 34 L 8 38 L 9 38 L 9 34 Z" style=""/>
  <path d="M 12 30 L 8 30 L 8 31 L 12 31 L 12 30 Z" style=""/>
  <path d="M 20.957 30 L 16 30 L 16 31 L 20.957 31 L 20.957 30 Z" style=""/>
  <path d="M 29 31 L 25 31 L 25 32 L 29 32 L 29 31 Z" style=""/>
  <path d="M 28 33.994 L 27 33.994 L 27 37.994 L 28 37.994 C 28.884 38.252 28.734 34.209 28 33.994 Z" style=""/>
  <path d="M 28 41 L 27 41 L 27 45 L 28 45 L 28 41 Z" style=""/>
  <path d="M 29 47 L 25 47 L 25 48 L 29 48 L 29 47 Z" style=""/>
  <path d="M 20.957 47 L 16 47 L 16 48 L 20.957 48 L 20.957 47 Z" style=""/>
  <path d="M 12 47 L 8 47 L 8 48 L 12 48 L 12 47 Z" style=""/>
  <path d="M 10 41 L 9 41 L 9 45 L 10 45 L 10 41 Z" style=""/>
  <path d="M 10 34 L 9 34 L 9 38 L 10 38 L 10 34 Z" style=""/>
  <path d="M 12 31 L 8 31 L 8 32 L 12 32 L 12 31 Z" style=""/>
  <path d="M 20.957 31 L 16 31 L 16 32 L 20.957 32 L 20.957 31 Z" style=""/>
</svg>