<?xml version="1.0" encoding="utf-8"?>
<svg viewBox="8 30 63 19" xmlns="http://www.w3.org/2000/svg">
  <defs>
    <style>.cls-1{fill:#fff;}.cls-2{fill:#ccc;}</style>
  </defs>
  <g id="Layer_2" data-name="Layer 2">
    <rect class="cls-1" x="8.5" y="30.5" width="62" height="18"/>
    <path d="M70,31V48H9V31H70m1-1H8V49H71V30Z"/>
    <rect class="cls-2" x="8" y="30" width="21" height="19"/>
    <path d="M29,30H25v1h4V30Zm-8,0H17v1h4V30Zm-8,0H9v1h4V30ZM9,33H8v4H9V33Zm0,8H8v4H9V41Zm3,7H8v1h4V48Zm8,0H16v1h4V48Zm8,0H24v1h4V48Zm1-6H28v4h1V42Zm0-8H28v4h1V34Z"/>
  </g>
</svg>