<?xml version="1.0" encoding="utf-8"?>
<svg viewBox="12 31 55 35.781" xmlns="http://www.w3.org/2000/svg">
  <defs>
    <style>.cls-1{fill:#fff;}.cls-2{fill:#ccc;}</style>
  </defs>
  <g>
    <g id="Layer_2" data-name="Layer 2">
      <path class="cls-1" d="M15.59,49.5c-.59-.62-3.09-3.54-3.09-9s2.49-8.38,3.09-9H61.5v18Z"/>
      <path d="M61,32V49H15.81c-.74-.81-2.81-3.52-2.81-8.5s2.08-7.7,2.81-8.5H61m1-1H15.39S12,34,12,40.5,15.39,50,15.39,50H62V31Z"/>
      <ellipse class="cls-2" cx="61.5" cy="40.5" rx="5" ry="9"/>
      <path d="M61.5,32c2.44,0,4.5,3.89,4.5,8.5S63.94,49,61.5,49,57,45.11,57,40.5,59.06,32,61.5,32m0-1c-3,0-5.5,4.25-5.5,9.5S58.46,50,61.5,50,67,45.75,67,40.5,64.54,31,61.5,31Z"/>
    </g>
    <path d="M 36.987 56.265 L 36.987 57.365 L 34.547 57.365 L 34.547 64.085 L 33.197 64.085 L 33.197 57.365 L 30.777 57.365 L 30.777 56.265 L 36.987 56.265 ZM 41.781 64.085 L 40.451 64.085 C 40.397 63.972 40.347 63.792 40.301 63.545 C 39.887 63.978 39.381 64.195 38.781 64.195 C 38.194 64.195 37.717 64.028 37.351 63.695 C 36.977 63.362 36.791 62.948 36.791 62.455 C 36.791 61.835 37.021 61.362 37.481 61.035 C 37.941 60.702 38.601 60.535 39.461 60.535 L 40.261 60.535 L 40.261 60.155 C 40.261 59.855 40.177 59.615 40.011 59.435 C 39.837 59.248 39.581 59.155 39.241 59.155 C 38.941 59.155 38.697 59.232 38.511 59.385 C 38.317 59.532 38.221 59.718 38.221 59.945 L 36.921 59.945 C 36.921 59.632 37.024 59.335 37.231 59.055 C 37.444 58.775 37.734 58.558 38.101 58.405 C 38.461 58.245 38.864 58.165 39.311 58.165 C 39.991 58.165 40.534 58.335 40.941 58.675 C 41.347 59.022 41.554 59.505 41.561 60.125 L 41.561 62.745 C 41.561 63.265 41.634 63.682 41.781 63.995 L 41.781 64.085 Z M 39.021 63.145 C 39.274 63.145 39.514 63.082 39.741 62.955 C 39.974 62.828 40.147 62.662 40.261 62.455 L 40.261 61.355 L 39.551 61.355 C 39.071 61.355 38.707 61.438 38.461 61.605 C 38.221 61.778 38.101 62.018 38.101 62.325 C 38.101 62.572 38.184 62.772 38.351 62.925 C 38.517 63.072 38.741 63.145 39.021 63.145 ZM 42.702 61.135 C 42.702 60.235 42.915 59.515 43.342 58.975 C 43.762 58.435 44.325 58.165 45.032 58.165 C 45.692 58.165 46.212 58.395 46.592 58.855 L 46.652 58.275 L 47.822 58.275 L 47.822 63.905 C 47.822 64.672 47.585 65.275 47.112 65.715 C 46.638 66.155 45.998 66.375 45.192 66.375 C 44.765 66.375 44.348 66.285 43.942 66.105 C 43.535 65.932 43.228 65.702 43.022 65.415 L 43.642 64.625 C 44.042 65.105 44.535 65.345 45.122 65.345 C 45.555 65.345 45.895 65.228 46.142 64.995 C 46.395 64.755 46.522 64.408 46.522 63.955 L 46.522 63.565 C 46.148 63.985 45.648 64.195 45.022 64.195 C 44.335 64.195 43.778 63.925 43.352 63.385 C 42.918 62.845 42.702 62.095 42.702 61.135 Z M 44.002 61.245 C 44.002 61.832 44.122 62.292 44.362 62.625 C 44.595 62.958 44.925 63.125 45.352 63.125 C 45.878 63.125 46.268 62.902 46.522 62.455 L 46.522 59.895 C 46.275 59.455 45.888 59.235 45.362 59.235 C 44.928 59.235 44.595 59.405 44.362 59.745 C 44.122 60.085 44.002 60.585 44.002 61.245 Z" transform="matrix(1, 0, 0, 1, 0, 0)" style="fill: rgb(51, 51, 51); white-space: pre;"/>
  </g>
</svg>