<?xml version="1.0" encoding="utf-8"?>
<svg viewBox="12 31 55 35.781" xmlns="http://www.w3.org/2000/svg">
  <defs>
    <style>.cls-1{fill:#fff;}.cls-2{fill:#ccc;}</style>
  </defs>
  <g id="Layer_2" data-name="Layer 2">
    <path class="cls-1" d="M15.59,49.5c-.59-.62-3.09-3.54-3.09-9s2.49-8.38,3.09-9H61.5v18Z"/>
    <path d="M61,32V49H15.81c-.74-.81-2.81-3.52-2.81-8.5s2.08-7.7,2.81-8.5H61m1-1H15.39S12,34,12,40.5,15.39,50,15.39,50H62V31Z"/>
    <ellipse class="cls-2" cx="61.5" cy="40.5" rx="5" ry="9"/>
    <path d="M61.5,32c2.44,0,4.5,3.89,4.5,8.5S63.94,49,61.5,49,57,45.11,57,40.5,59.06,32,61.5,32m0-1c-3,0-5.5,4.25-5.5,9.5S58.46,50,61.5,50,67,45.75,67,40.5,64.54,31,61.5,31Z"/>
  </g>
  <path d="M 28.419 62.096 C 28.419 61.749 28.299 61.483 28.059 61.296 C 27.819 61.109 27.382 60.923 26.749 60.736 C 26.122 60.543 25.622 60.329 25.249 60.096 C 24.535 59.649 24.179 59.066 24.179 58.346 C 24.179 57.719 24.435 57.199 24.949 56.786 C 25.462 56.379 26.129 56.176 26.949 56.176 C 27.495 56.176 27.982 56.276 28.409 56.476 C 28.835 56.676 29.169 56.963 29.409 57.336 C 29.655 57.709 29.779 58.119 29.779 58.566 L 28.419 58.566 C 28.419 58.159 28.292 57.839 28.039 57.606 C 27.779 57.379 27.412 57.266 26.939 57.266 C 26.492 57.266 26.149 57.359 25.909 57.546 C 25.662 57.739 25.539 58.006 25.539 58.346 C 25.539 58.633 25.672 58.869 25.939 59.056 C 26.199 59.249 26.635 59.436 27.249 59.616 C 27.855 59.796 28.342 60.003 28.709 60.236 C 29.082 60.469 29.352 60.736 29.519 61.036 C 29.692 61.329 29.779 61.679 29.779 62.086 C 29.779 62.733 29.529 63.249 29.029 63.636 C 28.529 64.023 27.852 64.216 26.999 64.216 C 26.432 64.216 25.912 64.109 25.439 63.896 C 24.965 63.689 24.595 63.403 24.329 63.036 C 24.069 62.663 23.939 62.233 23.939 61.746 L 25.299 61.746 C 25.299 62.186 25.445 62.529 25.739 62.776 C 26.032 63.016 26.452 63.136 26.999 63.136 C 27.472 63.136 27.829 63.043 28.069 62.856 C 28.302 62.663 28.419 62.409 28.419 62.096 ZM 32.237 55.856 L 32.237 64.106 L 30.927 64.106 L 30.927 55.856 L 32.237 55.856 ZM 36.216 64.216 C 35.39 64.216 34.72 63.956 34.206 63.436 C 33.693 62.909 33.436 62.213 33.436 61.346 L 33.436 61.186 C 33.436 60.606 33.546 60.089 33.766 59.636 C 33.993 59.176 34.306 58.819 34.706 58.566 C 35.113 58.313 35.566 58.186 36.066 58.186 C 36.853 58.186 37.463 58.439 37.896 58.946 C 38.33 59.453 38.546 60.166 38.546 61.086 L 38.546 61.616 L 34.746 61.616 C 34.786 62.096 34.946 62.476 35.226 62.756 C 35.506 63.036 35.86 63.176 36.286 63.176 C 36.886 63.176 37.373 62.933 37.746 62.446 L 38.456 63.116 C 38.223 63.463 37.913 63.733 37.526 63.926 C 37.133 64.119 36.696 64.216 36.216 64.216 Z M 36.056 59.236 C 35.703 59.236 35.413 59.359 35.186 59.606 C 34.966 59.859 34.826 60.209 34.766 60.656 L 37.256 60.656 L 37.256 60.566 C 37.23 60.126 37.113 59.793 36.906 59.566 C 36.7 59.346 36.416 59.236 36.056 59.236 ZM 42.119 64.216 C 41.292 64.216 40.622 63.956 40.109 63.436 C 39.596 62.909 39.339 62.213 39.339 61.346 L 39.339 61.186 C 39.339 60.606 39.449 60.089 39.669 59.636 C 39.896 59.176 40.209 58.819 40.609 58.566 C 41.016 58.313 41.469 58.186 41.969 58.186 C 42.756 58.186 43.366 58.439 43.799 58.946 C 44.232 59.453 44.449 60.166 44.449 61.086 L 44.449 61.616 L 40.649 61.616 C 40.689 62.096 40.849 62.476 41.129 62.756 C 41.409 63.036 41.762 63.176 42.189 63.176 C 42.789 63.176 43.276 62.933 43.649 62.446 L 44.359 63.116 C 44.126 63.463 43.816 63.733 43.429 63.926 C 43.036 64.119 42.599 64.216 42.119 64.216 Z M 41.959 59.236 C 41.606 59.236 41.316 59.359 41.089 59.606 C 40.869 59.859 40.729 60.209 40.669 60.656 L 43.159 60.656 L 43.159 60.566 C 43.132 60.126 43.016 59.793 42.809 59.566 C 42.602 59.346 42.319 59.236 41.959 59.236 ZM 46.192 58.296 L 47.442 62.456 L 48.672 58.296 L 50.022 58.296 L 48.002 64.106 L 46.872 64.106 L 44.842 58.296 L 46.192 58.296 ZM 53.323 64.216 C 52.496 64.216 51.826 63.956 51.313 63.436 C 50.799 62.909 50.543 62.213 50.543 61.346 L 50.543 61.186 C 50.543 60.606 50.653 60.089 50.873 59.636 C 51.099 59.176 51.413 58.819 51.813 58.566 C 52.219 58.313 52.673 58.186 53.173 58.186 C 53.959 58.186 54.569 58.439 55.003 58.946 C 55.436 59.453 55.653 60.166 55.653 61.086 L 55.653 61.616 L 51.853 61.616 C 51.893 62.096 52.053 62.476 52.333 62.756 C 52.613 63.036 52.966 63.176 53.393 63.176 C 53.993 63.176 54.479 62.933 54.853 62.446 L 55.563 63.116 C 55.329 63.463 55.019 63.733 54.633 63.926 C 54.239 64.119 53.803 64.216 53.323 64.216 Z M 53.163 59.236 C 52.809 59.236 52.519 59.359 52.293 59.606 C 52.073 59.859 51.933 60.209 51.873 60.656 L 54.363 60.656 L 54.363 60.566 C 54.336 60.126 54.219 59.793 54.013 59.566 C 53.806 59.346 53.523 59.236 53.163 59.236 Z" transform="matrix(1, 0, 0, 1, 0, 0)" style="fill: rgb(51, 51, 51); white-space: pre;"/>
</svg>