<?xml version="1.0" encoding="utf-8"?>
<svg viewBox="12 31 55 19" xmlns="http://www.w3.org/2000/svg">
  <defs>
    <style>.cls-1{fill:#fff;}.cls-2{fill:#ccc;}</style>
  </defs>
  <g id="Layer_2" data-name="Layer 2">
    <path class="cls-1" d="M15.59,49.5c-.59-.62-3.09-3.54-3.09-9s2.49-8.38,3.09-9H61.5v18Z"/>
    <path d="M61,32V49H15.81c-.74-.81-2.81-3.52-2.81-8.5s2.08-7.7,2.81-8.5H61m1-1H15.39S12,34,12,40.5,15.39,50,15.39,50H62V31Z"/>
    <ellipse class="cls-2" cx="61.5" cy="40.5" rx="5" ry="9"/>
    <path d="M61.5,32c2.44,0,4.5,3.89,4.5,8.5S63.94,49,61.5,49,57,45.11,57,40.5,59.06,32,61.5,32m0-1c-3,0-5.5,4.25-5.5,9.5S58.46,50,61.5,50,67,45.75,67,40.5,64.54,31,61.5,31Z"/>
  </g>
</svg>