<svg viewBox="0 0 100 100" xmlns="http://www.w3.org/2000/svg"><circle cx="50" cy="50" fill="#043f8d" r="45"/><path d="m66 44.31-14.47-19.77a1.9 1.9 0 0 0 -2.64-.42 1.86 1.86 0 0 0 -.42.42l-14.47 19.77a20.84 20.84 0 0 0 -2 21 19.51 19.51 0 0 0 16.45 11.35h3.1a19.51 19.51 0 0 0 16.52-11.36 20.84 20.84 0 0 0 -2.07-20.99zm-16 23.83h-.8a11.09 11.09 0 0 1 -9.46-6.5 11.73 11.73 0 0 1 1.15-12 1.9 1.9 0 0 1 3.11 2.27 7.9 7.9 0 0 0 -.78 8 7.29 7.29 0 0 0 6.2 4.35h.58l.08.06a1.9 1.9 0 0 1 0 3.79z" fill="#fff"/></svg>