<svg viewBox="0 0 100 100" xmlns="http://www.w3.org/2000/svg"><path d="m94.19 31.43a12.9 12.9 0 0 0 -12.88-12.87h-34.06a3 3 0 0 0 -3 3v.44l-10.55 1.56a2.45 2.45 0 0 0 -2.08 2h-1.62a3.5 3.5 0 0 0 -3.5 3.5v4.12a3.5 3.5 0 0 0 3.5 3.5h1.6a2.46 2.46 0 0 0 2.1 2.32l10.55 1.6v.7a3 3 0 0 0 3 3h10.24l.42 1.45-1.68.54a3.52 3.52 0 0 0 -2.23 4.42l2.16 6.65a3.53 3.53 0 0 0 3.32 2.43 3.41 3.41 0 0 0 1.09-.18l1.21-.39 5.16 18v.24l-2.59 2.6-.23.28a3.91 3.91 0 0 0 0 3.62 2.31 2.31 0 0 0 2 1.31h5.45v2a2 2 0 0 0 2 2h3a2 2 0 0 0 2-2v-2h3.53c2 0 2.5-2.53 2.5-3.51v-12.3a3.27 3.27 0 0 0 0-.53l-4.52-21.17 2.34-3.51a12.88 12.88 0 0 0 11.77-12.82zm-34.57 25.33a.55.55 0 0 1 -.38 0 .53.53 0 0 1 -.25-.29l-2.15-6.65a.5.5 0 0 1 .32-.63l1.23-.4 2.46 7.6zm30.12-28.08h-9.89a1 1 0 0 0 0 2h10.3v.75a8.55 8.55 0 0 1 -.1 1.25h-9.2a1 1 0 0 0 0 2h8.71a8.67 8.67 0 0 1 -1.11 2h-8.6a1 1 0 0 0 0 2h6.57a8.86 8.86 0 0 1 -5.11 1.63h-24.93c-1.53-10.54 6.16-16 9.25-17.75h15.68a8.88 8.88 0 0 1 8.43 6.12zm-61.21 4.71v-4.45a1.34 1.34 0 0 1 1.34-1.34h1.71v7.12h-1.72a1.33 1.33 0 0 1 -1.33-1.33zm7 2.87v-10l8.72-1.26v12.58zm12.67-13.7h12.31c-3.85 3.27-8.25 9-7.15 17.75h-5.11zm22.35 53-6.24-21.96a7.82 7.82 0 0 0 3.57-3.18c1.16-1.81 1.61-1.89 1.65-1.89s1.18.39 2.5 7.75 2.65 14.85.07 18.08a4.28 4.28 0 0 1 -1.5 1.19zm6.06 11.72h-3v-2h3zm4-17.65v11.64h-11.78l1.67-1.68.23-.27a2.48 2.48 0 0 0 .4-1.81 6.52 6.52 0 0 0 2.54-1.9c3.14-3.94 1.77-11.61.33-19.72-1.31-7.33-2.57-9-4.07-9.32s-2.69 1.15-3.73 2.77a6.07 6.07 0 0 1 -2.43 2.32l-2.11-7.35h15.92l-1.18 1.76a2.5 2.5 0 0 0 -.4 1.93z"/><path d="m18.35 27.87c-1.06 0-2-.8-3-1.65s-2.23-1.88-3.69-1.88a8.81 8.81 0 0 0 -5 2l1.29 1.52a7 7 0 0 1 3.71-1.52 4.67 4.67 0 0 1 2.41 1.41c1.18 1 2.51 2.12 4.3 2.12a7.88 7.88 0 0 0 5.19-2.06l-1.42-1.42a5.81 5.81 0 0 1 -3.79 1.48z"/><path d="m17.35 34.87c-1.06 0-2-.8-3-1.65s-2.23-1.88-3.69-1.88a8.81 8.81 0 0 0 -5 2l1.29 1.52a7 7 0 0 1 3.71-1.52 4.67 4.67 0 0 1 2.41 1.41c1.18 1 2.51 2.12 4.3 2.12a7.88 7.88 0 0 0 5.19-2.06l-1.42-1.42a5.81 5.81 0 0 1 -3.79 1.48z"/></svg>