<svg viewBox="0 0 100 100" xmlns="http://www.w3.org/2000/svg"><path d="m84.12 5h-68.24a10.92 10.92 0 0 0 -10.88 10.88v68.24a10.92 10.92 0 0 0 10.88 10.88h68.24a10.92 10.92 0 0 0 10.88-10.88v-68.24a10.92 10.92 0 0 0 -10.88-10.88zm-68.24 4h68.24a6.94 6.94 0 0 1 6.88 6.88v68.24a6.94 6.94 0 0 1 -6.88 6.88h-68.24a6.94 6.94 0 0 1 -6.88-6.88v-68.24a6.94 6.94 0 0 1 6.88-6.88z"/><path d="m73.56 40.58c-2.1-.48-5.93 7.81-6.3 9.47l-.12.43-1.46 4.52c-.51 1.6-1.49 2-2.28.48a1.81 1.81 0 0 1 -.2-.74c-.12-1.95 0-33.11 0-33.11a3.25 3.25 0 0 0 -6.49 0v22.74a2.11 2.11 0 0 1 -2.09 1.3 1.63 1.63 0 0 1 -1.81-1.3v-26.61a3.25 3.25 0 1 0 -6.49 0v26.61a2.33 2.33 0 0 1 -2.09 1.3 1.74 1.74 0 0 1 -1.8-1.3v-22.72a3.25 3.25 0 0 0 -6.49 0v25.35a1.53 1.53 0 0 1 -1.44 1.29c-1.22 0-1.16-1.29-1.16-1.29v-16.26a3.25 3.25 0 0 0 -3.25-3.25 3.25 3.25 0 0 0 -3.24 3.25v18.82l.21 12.8c0 12.42 10.07 23.78 22.49 23.78s22.37-12.08 22.37-24.5l4.82-16a4.22 4.22 0 0 0 -3.18-5.06zm-24.69 37.34a2.5 2.5 0 1 1 2.5-2.5 2.5 2.5 0 0 1 -2.5 2.5zm2-9h-4.05l-2.45-16.18h9z"/></svg>