<svg id="Layer_1" data-name="Layer 1" xmlns="http://www.w3.org/2000/svg" viewBox="0 0 100 100"><title>adhesive_permanent</title><rect x="10" y="81.27" width="80" height="9"/><path d="M75.58,45.84l2.94,13.34c-3.45,1.22-10.18,3.15-22.15,5.12-12.93,2.13-27.17,2.57-36.83,2.57-1.71,0-3.24,0-4.54,0V54.53c2.53.18,5.83.33,9.76.33a162.33,162.33,0,0,0,21.43-1.45,122.31,122.31,0,0,0,29.39-7.57m3.56-7.11s-12.63,6.91-33.62,9.72a155.94,155.94,0,0,1-20.76,1.41A105.56,105.56,0,0,1,10,49V71.71s3.72.16,9.54.16c9.37,0,24.17-.42,37.64-2.64,21.83-3.59,27.1-7.11,27.1-7.11L79.14,38.73Z"/><polygon points="52 23.61 52 8.2 48 8.2 48 23.61 41.5 23.61 50 36.86 58.5 23.61 52 23.61"/></svg>