<svg viewBox="0 0 100 100" xmlns="http://www.w3.org/2000/svg"><path d="m84.12 5h-68.24a10.92 10.92 0 0 0 -10.88 10.88v68.24a10.92 10.92 0 0 0 10.88 10.88h68.24a10.92 10.92 0 0 0 10.88-10.88v-68.24a10.92 10.92 0 0 0 -10.88-10.88z" fill="#999"/><g fill="#fff"><path d="m16.89 45.57a2 2 0 0 0 1.4-.58l26.71-26.7a2 2 0 0 0 -2.8-2.8l-26.7 26.7a2 2 0 0 0 1.4 3.38z"/><path d="m17.89 57a2 2 0 0 0 1.4-.58l37.09-37.13a2 2 0 0 0 -2.8-2.8l-37.09 37.09a2 2 0 0 0 1.4 3.42z"/><path d="m81.7 55-26.7 26.7a2 2 0 0 0 -.53 1.91 2 2 0 0 0 1.41 1.39 1.77 1.77 0 0 0 .5.07 2 2 0 0 0 1.41-.59l26.71-26.69a2 2 0 0 0 -2.8-2.79z"/><path d="m43.1 82.63a2 2 0 0 0 1.41 1.37 1.68 1.68 0 0 0 .5.07 2 2 0 0 0 1.41-.59l37.09-37.06a2 2 0 0 0 -2.8-2.8l-37.08 37.09a2 2 0 0 0 -.53 1.92z"/></g></svg>