<svg viewBox="0 0 100 100" xmlns="http://www.w3.org/2000/svg"><path d="m76.26 76.54a51.25 51.25 0 0 0 9.53-22.54 53 53 0 0 0 .63-7.76c0-8 0-16.16 0-24a.75.75 0 0 0 -.53-.85c-11.67-5.2-23.52-10.48-35.27-15.74a1.4 1.4 0 0 0 -.62-.16 1.38 1.38 0 0 0 -.62.15c-11.93 5.36-23.75 10.56-35.21 15.63a.88.88 0 0 0 -.61 1v13.05 10.35a51.35 51.35 0 0 0 11.19 32.09 46.17 46.17 0 0 0 23.71 16.48 5.18 5.18 0 0 0 3.14 0 47.27 47.27 0 0 0 24.66-17.7zm-27.79 11.06a39.19 39.19 0 0 1 -20.17-14 43.51 43.51 0 0 1 -9.43-27.2v-19.41a1.61 1.61 0 0 1 1.13-1.73q14.45-6.41 29.05-12.93a2.09 2.09 0 0 1 1.84 0q14.58 6.51 29.24 13a1.48 1.48 0 0 1 1 1.63v6.58 13.32a45.38 45.38 0 0 1 -.54 6.58 43.44 43.44 0 0 1 -8.09 19.12 40.07 40.07 0 0 1 -20.95 15 5 5 0 0 1 -1.57.25 5 5 0 0 1 -1.51-.21z"/><path d="m50.07 18.78v31.66 31a4.64 4.64 0 0 1 -1.22-.2 33.43 33.43 0 0 1 -17.56-12.6 36.38 36.38 0 0 1 -6.79-16c-.16-.94-.27-1.9-.34-2.86-.06-.79-.09-1.58-.09-2.38v-16.5a.94.94 0 0 1 .61-1l24.75-11a1.59 1.59 0 0 1 .64-.12z"/></svg>