<svg width="88" height="93" xmlns="http://www.w3.org/2000/svg"><g fill-rule="nonzero" fill="none"><path d="M14.767 31.84v32.504h57.956V31.84H14.767zm53.386 27.936H19.337V36.408h48.816v23.368zm-10.806-49.75H27.785l2.17-4.848h22.427l4.965 4.849zM26.618 0L22.13 10.027H1.112V26.53h3.166v64.603h37.61v-16.3h41.324V26.53h3.165V10.027H64.736L54.471 0H26.618zM6.292 21.354v-6.151H81.2v6.151H6.292zm71.742 48.301H36.712v16.3H9.456V26.532h68.578v43.124z" fill="#000"/><path d="M37.713 53.463c.443 3.233 3.171 4.143 6.03 4.143 2.86 0 5.59-.91 6.032-4.145.62-4.54-3.583-11.306-6.03-14.882-2.449 3.578-6.65 10.338-6.032 14.884z" fill="#B40000"/></g></svg>