<?xml version="1.0" encoding="utf-8"?>
<svg viewBox="13.131 15.045 10.772 10.059" xmlns="http://www.w3.org/2000/svg">
  <defs>
    <clipPath id="clipPath18" clipPathUnits="userSpaceOnUse">
      <path id="path16" d="M 0,28.47 H 30.666 V 0 H 0 Z"/>
    </clipPath>
  </defs>
  <g transform="matrix(1.333333, 0, 0, -1.333333, 0, 37.960266)" id="g10">
    <g id="g12">
      <g clip-path="url(#clipPath18)" id="g14">
        <g transform="translate(10.2646,9.6426)" id="g20">
          <path id="path22" style="fill:#fff200;fill-opacity:1;fill-rule:nonzero;stroke:none" d="m 0,0 c -0.229,0 -0.416,0.188 -0.416,0.416 v 6.712 c 0,0.228 0.187,0.416 0.416,0.416 h 7.247 c 0.229,0 0.416,-0.188 0.416,-0.416 V 0.416 C 7.663,0.188 7.476,0 7.247,0 Z"/>
        </g>
        <g transform="translate(14.0537,16.7988)" id="g24">
          <path id="path26" style="fill:#231f20;fill-opacity:1;fill-rule:nonzero;stroke:none" d="m 0,0 2.979,-5.792 -4.894,2.408 z"/>
        </g>
        <g transform="translate(11.6836,12.6089)" id="g28">
          <path id="path30" style="fill:#231f20;fill-opacity:1;fill-rule:nonzero;stroke:none" d="M 0,0 4.792,-2.44 H -1.381 Z"/>
        </g>
        <g transform="translate(17.46,9.667)" id="g32">
          <path id="path34" style="fill:#fff200;fill-opacity:1;fill-rule:nonzero;stroke:none" d="M 0,0 -6.099,3.106 -5.645,3.997 0.454,0.891 Z"/>
        </g>
        <g transform="translate(13.1304,11.8228)" id="g36">
          <path id="path38" style="fill:#fff200;fill-opacity:1;fill-rule:nonzero;stroke:none" d="m 0,0 c 0.04,-0.108 0.085,-0.354 0.263,-0.304 0.333,0.095 0.142,0.25 0.112,0.456 C 0.347,0.331 0.495,0.633 0.53,0.776 0.566,0.919 0.428,1.03 0.428,1.03 L 0.018,0.728 Z"/>
        </g>
        <g transform="translate(13.2715,12.4858)" id="g40">
          <path id="path42" style="fill:#231f20;fill-opacity:1;fill-rule:nonzero;stroke:none" d="m 0,0 -0.016,-0.666 c 0.024,-0.052 0.062,-0.171 0.092,-0.182 h 0.001 v -0.125 l 0.011,0.126 c 0.087,0.025 0.104,0.047 0.104,0.048 0,0.01 -0.018,0.059 -0.03,0.091 -0.02,0.052 -0.042,0.111 -0.052,0.178 -0.024,0.158 0.049,0.362 0.109,0.526 0.02,0.057 0.039,0.108 0.049,0.147 0.004,0.018 0.002,0.035 -0.005,0.051 z m 0.077,-1.098 c -0.211,0 -0.282,0.223 -0.32,0.344 L -0.249,0.067 -0.198,0.165 0.29,0.525 0.365,0.464 C 0.439,0.405 0.554,0.257 0.51,0.083 0.499,0.038 0.478,-0.022 0.454,-0.089 0.407,-0.219 0.342,-0.397 0.357,-0.492 0.363,-0.534 0.379,-0.577 0.396,-0.619 0.428,-0.703 0.467,-0.809 0.415,-0.913 0.362,-1.018 0.242,-1.063 0.156,-1.087 Z"/>
        </g>
        <g transform="translate(13.3218,12.4341)" id="g44">
          <path id="path46" style="fill:#fff200;fill-opacity:1;fill-rule:nonzero;stroke:none" d="M 0,0 0.067,-0.094 0.281,-0.202 0.615,-0.241 0.87,-0.188 1.03,-0.147 0.749,0.227 0,0.308 Z"/>
        </g>
        <g transform="translate(13.4468,12.6108)" id="g48">
          <path id="path50" style="fill:#231f20;fill-opacity:1;fill-rule:nonzero;stroke:none" d="m 0,0 0.043,-0.198 0.169,-0.069 0.271,-0.025 0.208,0.044 -0.167,0.223 z m 0.496,-0.544 -0.355,0.042 -0.255,0.12 -0.113,0.132 -0.023,0.52 0.887,-0.095 0.48,-0.574 z"/>
        </g>
        <g transform="translate(12.8052,11.4976)" id="g52">
          <path id="path54" style="fill:#fff200;fill-opacity:1;fill-rule:nonzero;stroke:none" d="M 0,0 C 0.053,-0.143 0.48,-0.269 0.526,-0.106 0.562,0.021 0.405,0.218 0.387,0.41 0.37,0.591 0.398,0.692 0.441,0.865 0.477,1.007 0.512,1.079 0.512,1.079 L 0.102,0.775 Z"/>
        </g>
        <g transform="translate(12.9443,11.4878)" id="g56">
          <path id="path58" style="fill:#231f20;fill-opacity:1;fill-rule:nonzero;stroke:none" d="m 0,0 c 0.041,0 0.149,-0.048 0.241,-0.048 v -0.125 l 0.04,0.13 C 0.274,-0.035 0.237,0.054 0.212,0.113 0.175,0.202 0.133,0.302 0.124,0.409 0.11,0.554 0.123,0.656 0.147,0.766 L 0.037,0.685 -0.015,-0.006 C -0.013,-0.002 -0.008,0 0,0 M 0.242,-0.298 H 0.241 c -0.163,0 -0.434,0.094 -0.497,0.264 L -0.161,0.801 0.298,1.189 0.485,1.035 C 0.482,1.028 0.453,0.964 0.423,0.844 0.379,0.668 0.358,0.584 0.373,0.432 0.379,0.363 0.411,0.285 0.443,0.209 0.49,0.097 0.538,-0.019 0.507,-0.13 0.478,-0.235 0.378,-0.298 0.242,-0.298"/>
        </g>
        <g transform="translate(15.5244,14.1099)" id="g60">
          <path id="path62" style="fill:#fff200;fill-opacity:1;fill-rule:nonzero;stroke:none" d="m 0,0 c -0.178,-0.106 -0.245,-0.231 -0.441,-0.356 -0.197,-0.125 -0.571,-0.321 -0.749,-0.321 -0.179,0 -0.557,0.018 -0.718,0 -0.16,-0.018 -0.196,-0.116 -0.29,-0.188 -0.064,-0.048 -0.071,-0.092 -0.188,-0.169 -0.107,-0.071 -0.214,-0.124 -0.302,-0.285 -0.09,-0.161 -0.448,-0.418 -0.416,-0.576 0.041,-0.189 0.041,-0.806 0.186,-0.876 0.07,-0.035 0.192,-0.183 0.306,-0.153 0.184,0.047 -0.005,0.307 -0.032,0.445 -0.017,0.088 0.044,0.257 0.044,0.419 0,0.482 0.687,0.597 0.732,0.598 0.048,10e-4 0.41,-0.232 0.499,-0.321 0.09,-0.09 0.027,-0.09 -0.045,-0.215 -0.07,-0.124 -0.222,-0.276 -0.347,-0.364 -0.125,-0.09 -0.519,-0.193 -0.517,-0.384 10e-4,-0.16 0.276,-0.233 0.338,-0.188 0.117,0.083 0.856,0.336 1.017,0.384 0.076,0.023 0.361,0.334 0.437,0.392 0.158,0.122 0.133,0.66 0.241,0.785 0.107,0.124 0.656,0.356 0.744,0.393 C 0.588,-0.945 0,0 0,0"/>
        </g>
        <g transform="translate(12.9316,11.0527)" id="g64">
          <path id="path66" style="fill:#231f20;fill-opacity:1;fill-rule:nonzero;stroke:none" d="m 0,0 -0.059,0.243 c -0.014,0.004 -0.05,0.091 -0.07,0.137 -0.024,0.058 -0.046,0.112 -0.056,0.163 -0.013,0.068 0,0.145 0.017,0.235 0.011,0.065 0.025,0.138 0.025,0.208 0,0.57 0.755,0.722 0.856,0.722 H 0.714 C 0.832,1.708 1.237,1.415 1.301,1.351 1.425,1.227 1.385,1.135 1.323,1.054 1.188,0.833 1.016,0.669 0.893,0.582 0.852,0.552 0.786,0.521 0.713,0.487 0.635,0.451 0.428,0.356 0.428,0.301 L 0.178,0.299 C 0.177,0.516 0.426,0.63 0.608,0.714 0.665,0.74 0.716,0.763 0.748,0.785 0.868,0.871 1.002,1.011 1.06,1.111 L 1.124,1.206 C 1.049,1.25 0.748,1.441 0.688,1.462 0.694,1.455 0.107,1.359 0.107,0.986 0.107,0.9 0.092,0.813 0.078,0.733 0.068,0.683 0.056,0.613 0.06,0.591 0.065,0.564 0.084,0.52 0.102,0.478 0.151,0.361 0.206,0.229 0.15,0.116 L 0.125,0.064 Z"/>
        </g>
      </g>
    </g>
  </g>
</svg>