<?xml version="1.0" encoding="utf-8"?>
<svg viewBox="13 29 55.09 38.016" xmlns="http://www.w3.org/2000/svg">
  <defs>
    <style>.cls-1{fill:#fff;}.cls-2{fill:#ccc;}</style>
  </defs>
  <g>
    <g id="Layer_2" data-name="Layer 2">
      <polygon class="cls-1" points="13.5 49.5 13.5 29.5 67.59 29.5 67.5 35.22 67.5 43.78 67.47 49.5 13.5 49.5"/>
      <path d="M67.08,30,67,35.22v8.55L67,49H14V30H67.08m1-1H13V50H68l0-6.22V35.22L68.09,29Z"/>
      <ellipse class="cls-2" cx="61.5" cy="34.5" rx="3" ry="2"/>
      <path d="M61.5,33c1.47,0,2.5.79,2.5,1.5S63,36,61.5,36,59,35.21,59,34.5,60,33,61.5,33m0-1c-1.93,0-3.5,1.12-3.5,2.5S59.57,37,61.5,37,65,35.88,65,34.5,63.43,32,61.5,32Z"/>
      <ellipse class="cls-2" cx="61.5" cy="44.5" rx="3" ry="2"/>
      <path d="M61.5,43c1.47,0,2.5.79,2.5,1.5S63,46,61.5,46,59,45.21,59,44.5,60,43,61.5,43m0-1c-1.93,0-3.5,1.12-3.5,2.5S59.57,47,61.5,47,65,45.88,65,44.5,63.43,42,61.5,42Z"/>
      <ellipse class="cls-2" cx="19.5" cy="44.5" rx="3" ry="2"/>
      <path d="M19.5,43c1.47,0,2.5.79,2.5,1.5S21,46,19.5,46,17,45.21,17,44.5,18,43,19.5,43m0-1c-1.93,0-3.5,1.12-3.5,2.5S17.57,47,19.5,47,23,45.88,23,44.5,21.43,42,19.5,42Z"/>
      <ellipse class="cls-2" cx="19.5" cy="34.5" rx="3" ry="2"/>
      <path d="M19.5,33c1.47,0,2.5.79,2.5,1.5S21,36,19.5,36,17,35.21,17,34.5,18,33,19.5,33m0-1c-1.93,0-3.5,1.12-3.5,2.5S17.57,37,19.5,37,23,35.88,23,34.5,21.43,32,19.5,32Z"/>
    </g>
    <path d="M 38.023 56.544 L 38.023 57.644 L 35.583 57.644 L 35.583 64.364 L 34.233 64.364 L 34.233 57.644 L 31.813 57.644 L 31.813 56.544 L 38.023 56.544 ZM 42.816 64.364 L 41.486 64.364 C 41.432 64.251 41.382 64.071 41.336 63.824 C 40.922 64.257 40.416 64.474 39.816 64.474 C 39.229 64.474 38.752 64.307 38.386 63.974 C 38.012 63.641 37.826 63.227 37.826 62.734 C 37.826 62.114 38.056 61.641 38.516 61.314 C 38.976 60.981 39.636 60.814 40.496 60.814 L 41.296 60.814 L 41.296 60.434 C 41.296 60.134 41.212 59.894 41.046 59.714 C 40.872 59.527 40.616 59.434 40.276 59.434 C 39.976 59.434 39.732 59.511 39.546 59.664 C 39.352 59.811 39.256 59.997 39.256 60.224 L 37.956 60.224 C 37.956 59.911 38.059 59.614 38.266 59.334 C 38.479 59.054 38.769 58.837 39.136 58.684 C 39.496 58.524 39.899 58.444 40.346 58.444 C 41.026 58.444 41.569 58.614 41.976 58.954 C 42.382 59.301 42.589 59.784 42.596 60.404 L 42.596 63.024 C 42.596 63.544 42.669 63.961 42.816 64.274 L 42.816 64.364 Z M 40.056 63.424 C 40.309 63.424 40.549 63.361 40.776 63.234 C 41.009 63.107 41.182 62.941 41.296 62.734 L 41.296 61.634 L 40.586 61.634 C 40.106 61.634 39.742 61.717 39.496 61.884 C 39.256 62.057 39.136 62.297 39.136 62.604 C 39.136 62.851 39.219 63.051 39.386 63.204 C 39.552 63.351 39.776 63.424 40.056 63.424 ZM 43.735 61.414 C 43.735 60.514 43.949 59.794 44.375 59.254 C 44.795 58.714 45.359 58.444 46.065 58.444 C 46.725 58.444 47.245 58.674 47.625 59.134 L 47.685 58.554 L 48.855 58.554 L 48.855 64.184 C 48.855 64.951 48.619 65.554 48.145 65.994 C 47.672 66.434 47.032 66.654 46.225 66.654 C 45.799 66.654 45.382 66.564 44.975 66.384 C 44.569 66.211 44.262 65.981 44.055 65.694 L 44.675 64.904 C 45.075 65.384 45.569 65.624 46.155 65.624 C 46.589 65.624 46.929 65.507 47.175 65.274 C 47.429 65.034 47.555 64.687 47.555 64.234 L 47.555 63.844 C 47.182 64.264 46.682 64.474 46.055 64.474 C 45.369 64.474 44.812 64.204 44.385 63.664 C 43.952 63.124 43.735 62.374 43.735 61.414 Z M 45.035 61.524 C 45.035 62.111 45.155 62.571 45.395 62.904 C 45.629 63.237 45.959 63.404 46.385 63.404 C 46.912 63.404 47.302 63.181 47.555 62.734 L 47.555 60.174 C 47.309 59.734 46.922 59.514 46.395 59.514 C 45.962 59.514 45.629 59.684 45.395 60.024 C 45.155 60.364 45.035 60.864 45.035 61.524 Z" transform="matrix(1, 0, 0, 1, 0, 0)" style="fill: rgb(51, 51, 51); white-space: pre;"/>
  </g>
</svg>