<?xml version="1.0" encoding="utf-8"?>
<svg viewBox="13 29 55.09 21" xmlns="http://www.w3.org/2000/svg">
  <defs>
    <style>.cls-1{fill:#fff;}.cls-2{fill:#ccc;}</style>
  </defs>
  <g id="Layer_2" data-name="Layer 2">
    <polygon class="cls-1" points="13.5 49.5 13.5 29.5 67.59 29.5 67.5 35.22 67.5 43.78 67.47 49.5 13.5 49.5"/>
    <path d="M67.08,30,67,35.22v8.55L67,49H14V30H67.08m1-1H13V50H68l0-6.22V35.22L68.09,29Z"/>
    <ellipse class="cls-2" cx="61.5" cy="34.5" rx="3" ry="2"/>
    <path d="M61.5,33c1.47,0,2.5.79,2.5,1.5S63,36,61.5,36,59,35.21,59,34.5,60,33,61.5,33m0-1c-1.93,0-3.5,1.12-3.5,2.5S59.57,37,61.5,37,65,35.88,65,34.5,63.43,32,61.5,32Z"/>
    <ellipse class="cls-2" cx="61.5" cy="44.5" rx="3" ry="2"/>
    <path d="M61.5,43c1.47,0,2.5.79,2.5,1.5S63,46,61.5,46,59,45.21,59,44.5,60,43,61.5,43m0-1c-1.93,0-3.5,1.12-3.5,2.5S59.57,47,61.5,47,65,45.88,65,44.5,63.43,42,61.5,42Z"/>
    <ellipse class="cls-2" cx="19.5" cy="44.5" rx="3" ry="2"/>
    <path d="M19.5,43c1.47,0,2.5.79,2.5,1.5S21,46,19.5,46,17,45.21,17,44.5,18,43,19.5,43m0-1c-1.93,0-3.5,1.12-3.5,2.5S17.57,47,19.5,47,23,45.88,23,44.5,21.43,42,19.5,42Z"/>
    <ellipse class="cls-2" cx="19.5" cy="34.5" rx="3" ry="2"/>
    <path d="M19.5,33c1.47,0,2.5.79,2.5,1.5S21,36,19.5,36,17,35.21,17,34.5,18,33,19.5,33m0-1c-1.93,0-3.5,1.12-3.5,2.5S17.57,37,19.5,37,23,35.88,23,34.5,21.43,32,19.5,32Z"/>
  </g>
</svg>