<?xml version="1.0" encoding="utf-8"?>
<svg viewBox="0 0 600 600" xmlns="http://www.w3.org/2000/svg">
  <path d="M 182.705 30 C 165.105 30 150.705 44.4 150.705 62 L 150.705 510 C 150.705 527.6 165.105 542 182.705 542 L 502.705 542 C 520.305 542 534.705 527.6 534.705 510 L 537.15 155.729 L 411.488 30 L 182.705 30 Z" style="fill: rgb(255, 255, 255); stroke: rgb(51, 51, 51); stroke-width: 11px;"/>
  <g style="" transform="matrix(2.13017, 0, 0, 2.13017, 85.136246, -97.047203)">
    <path d="M 181.716 198.389 C 181.751 202.906 178.211 206.601 173.851 206.601 L -0.578 206.601 C -4.939 206.601 -8.536 202.906 -8.57 198.389 L -9.215 116.261 C -9.252 111.744 -5.712 108.048 -1.35 108.048 L 173.078 108.048 C 177.437 108.048 181.035 111.744 181.071 116.261 L 181.716 198.389 Z" fill="#f15642" style=""/>
    <path d="M 58 127.472 L 58.083 137.617 L 39.459 137.644 L 39.864 188.303 L 27.336 188.322 L 26.93 137.664 L 8.554 137.691 L 8.473 127.546 L 58.001 127.472 L 58 127.472 Z M 84.458 188.235 L 65.627 188.265 L 65.141 127.46 L 83.851 127.432 C 89.197 127.425 93.984 128.621 98.22 131.023 C 102.458 133.426 105.778 136.845 108.181 141.282 C 110.584 145.719 111.808 150.764 111.853 156.417 L 111.876 159.212 C 111.921 164.863 110.798 169.892 108.505 174.295 C 106.215 178.697 102.964 182.112 98.75 184.54 C 94.54 186.967 89.775 188.197 84.458 188.235 Z M 83.932 137.577 L 77.75 137.587 L 78.075 178.181 L 84.127 178.171 C 89.026 178.165 92.758 176.557 95.326 173.35 C 97.889 170.146 99.174 165.564 99.179 159.606 L 99.153 156.392 C 99.104 150.212 97.787 145.529 95.201 142.346 C 92.616 139.159 88.859 137.57 83.932 137.577 Z M 152.606 172.182 C 152.586 169.814 151.738 167.999 150.055 166.735 C 148.379 165.468 145.36 164.135 141.004 162.737 C 136.652 161.338 133.201 159.96 130.655 158.6 C 123.723 154.878 120.233 149.858 120.182 143.538 C 120.154 140.252 121.058 137.32 122.888 134.741 C 124.721 132.166 127.362 130.149 130.816 128.694 C 134.269 127.245 138.156 126.515 142.472 126.508 C 146.815 126.501 150.69 127.282 154.097 128.849 C 157.51 130.418 160.166 132.633 162.064 135.498 C 163.966 138.364 164.932 141.617 164.962 145.263 L 152.433 145.282 C 152.413 142.501 151.519 140.338 149.753 138.792 C 147.989 137.251 145.517 136.481 142.343 136.487 C 139.279 136.492 136.904 137.142 135.219 138.44 C 133.53 139.736 132.693 141.444 132.71 143.562 C 132.725 145.54 133.734 147.195 135.736 148.527 C 137.737 149.86 140.679 151.106 144.558 152.268 C 151.702 154.403 156.915 157.056 160.197 160.226 C 163.479 163.397 165.139 167.346 165.176 172.077 C 165.217 177.34 163.26 181.471 159.303 184.467 C 155.345 187.467 149.997 188.972 143.26 188.982 C 138.582 188.989 134.315 188.14 130.459 186.433 C 126.607 184.728 123.66 182.385 121.617 179.411 C 119.574 176.433 118.536 172.981 118.505 169.057 L 131.075 169.038 C 131.131 175.748 135.164 179.096 143.18 179.083 C 146.164 179.079 148.482 178.469 150.14 177.255 C 151.802 176.044 152.622 174.352 152.606 172.182 Z" fill="#fff" white-space="pre" style=""/>
  </g>
  <path d="M 440.438 157.537 L 531.827 157.721 L 409.659 35.213 L 409.319 125.824 C 409.25 143.268 423.255 157.537 440.438 157.537 Z" style="fill: rgb(117, 117, 117);" transform="matrix(1, 0.000074, -0.000074, 1, 0.00714, -0.034822)"/>
  <g transform="matrix(1.131747, 0, 0, 1.131747, 106.214455, -32.518177)" style="">
    <path d="M 269.98 325.753 L 269.98 441.773 L 317.892 441.773 L 223.177 552.793 L 128.462 441.773 L 176.374 441.773 L 176.36 362.524 L 270.024 362.524 Z" fill="#f15642"/>
  </g>
</svg>