<?xml version="1.0" encoding="utf-8"?>
<svg viewBox="9 23 63 33" xmlns="http://www.w3.org/2000/svg">
  <defs>
    <style>.cls-1{fill:#fff;}.cls-2{fill:#ccc;}</style>
  </defs>
  <rect class="cls-1" x="9.5" y="23.5" width="62" height="32"/>
  <path d="M71,24V55H10V24H71m1-1H9V56H72V23Z"/>
  <path d="M 7.511 25.573 L 7.511 26.763 L 4.851 26.763 L 4.851 34.103 L 3.381 34.103 L 3.381 26.763 L 0.741 26.763 L 0.741 25.573 L 7.511 25.573 ZM 13.614 29.123 L 13.614 30.293 L 10.114 30.293 L 10.114 32.923 L 14.214 32.923 L 14.214 34.103 L 8.634 34.103 L 8.634 25.573 L 14.164 25.573 L 14.164 26.763 L 10.114 26.763 L 10.114 29.123 L 13.614 29.123 ZM 15.419 25.573 L 17.339 25.573 L 19.799 32.113 L 22.259 25.573 L 24.169 25.573 L 24.169 34.103 L 22.689 34.103 L 22.689 31.293 L 22.839 27.533 L 20.319 34.103 L 19.259 34.103 L 16.749 27.533 L 16.889 31.293 L 16.889 34.103 L 15.419 34.103 L 15.419 25.573 ZM 29.165 30.933 L 27.405 30.933 L 27.405 34.103 L 25.925 34.103 L 25.925 25.573 L 29.185 25.573 C 30.138 25.573 30.895 25.82 31.455 26.313 C 32.015 26.813 32.295 27.47 32.295 28.283 C 32.295 29.123 32.022 29.773 31.475 30.233 C 30.928 30.7 30.158 30.933 29.165 30.933 Z M 27.405 26.763 L 27.405 29.743 L 29.185 29.743 C 29.712 29.743 30.115 29.62 30.395 29.373 C 30.668 29.126 30.805 28.766 30.805 28.293 C 30.805 27.833 30.665 27.466 30.385 27.193 C 30.105 26.92 29.718 26.776 29.225 26.763 L 27.405 26.763 Z" transform="matrix(1, 0, 0, 1, 23.9140625, 3.6440229415893555)" style="fill: rgb(51, 51, 51); white-space: pre;"/>
  <path d="M 5.02 37.573 L 5.02 46.103 L 3.55 46.103 L 3.55 37.573 L 5.02 37.573 ZM 11.877 43.323 L 13.357 43.323 C 13.27 44.236 12.934 44.946 12.347 45.453 C 11.76 45.966 10.98 46.223 10.007 46.223 C 9.327 46.223 8.73 46.06 8.217 45.733 C 7.697 45.413 7.297 44.956 7.017 44.363 C 6.737 43.77 6.59 43.08 6.577 42.293 L 6.577 41.493 C 6.577 40.693 6.72 39.986 7.007 39.373 C 7.287 38.76 7.694 38.286 8.227 37.953 C 8.76 37.62 9.377 37.453 10.077 37.453 C 11.017 37.453 11.777 37.71 12.357 38.223 C 12.93 38.736 13.264 39.46 13.357 40.393 L 11.877 40.393 C 11.804 39.78 11.624 39.336 11.337 39.063 C 11.05 38.79 10.63 38.653 10.077 38.653 C 9.43 38.653 8.937 38.89 8.597 39.363 C 8.25 39.83 8.074 40.52 8.067 41.433 L 8.067 42.193 C 8.067 43.113 8.23 43.816 8.557 44.303 C 8.89 44.783 9.374 45.023 10.007 45.023 C 10.587 45.023 11.024 44.893 11.317 44.633 C 11.61 44.373 11.797 43.936 11.877 43.323 ZM 21.491 41.583 L 21.491 42.063 C 21.491 42.896 21.344 43.63 21.051 44.263 C 20.764 44.89 20.351 45.373 19.811 45.713 C 19.278 46.053 18.661 46.223 17.961 46.223 C 17.268 46.223 16.651 46.053 16.111 45.713 C 15.571 45.373 15.154 44.893 14.861 44.273 C 14.561 43.646 14.411 42.923 14.411 42.103 L 14.411 41.623 C 14.411 40.796 14.558 40.063 14.851 39.423 C 15.144 38.79 15.561 38.303 16.101 37.963 C 16.634 37.623 17.251 37.453 17.951 37.453 C 18.644 37.453 19.261 37.62 19.801 37.953 C 20.334 38.286 20.748 38.766 21.041 39.393 C 21.334 40.02 21.484 40.75 21.491 41.583 Z M 20.001 42.063 L 20.001 41.613 C 20.001 40.666 19.824 39.943 19.471 39.443 C 19.111 38.936 18.604 38.683 17.951 38.683 C 17.311 38.683 16.808 38.933 16.441 39.433 C 16.081 39.94 15.898 40.65 15.891 41.563 L 15.891 42.063 C 15.891 42.996 16.074 43.72 16.441 44.233 C 16.808 44.746 17.314 45.003 17.961 45.003 C 18.614 45.003 19.118 44.753 19.471 44.253 C 19.824 43.753 20.001 43.023 20.001 42.063 ZM 29.726 37.573 L 29.726 46.103 L 28.246 46.103 L 24.446 40.053 L 24.446 46.103 L 22.966 46.103 L 22.966 37.573 L 24.446 37.573 L 28.256 43.643 L 28.256 37.573 L 29.726 37.573 Z" transform="matrix(1, 0, 0, 1, 23.9140625, 3.6440229415893555)" style="fill: rgb(51, 51, 51); white-space: pre;"/>
</svg>